<?xml version="1.0" encoding="UTF-8"?>
<svg id="Layer_2" data-name="Layer 2" xmlns="http://www.w3.org/2000/svg" viewBox="0 0 800 400">
  <defs>
    <style>
      .cls-1 {
        stroke: #73622e;
      }

      .cls-1, .cls-2 {
        stroke-width: .64px;
      }

      .cls-1, .cls-2, .cls-3, .cls-4 {
        stroke-linecap: round;
        stroke-linejoin: round;
      }

      .cls-1, .cls-5 {
        fill: #fff;
      }

      .cls-6 {
        font-family: DeliciousHandrawn-Regular, 'Delicious Handrawn';
      }

      .cls-7 {
        letter-spacing: -.05em;
      }

      .cls-7, .cls-8, .cls-9, .cls-10 {
        font-size: 36px;
      }

      .cls-2 {
        stroke: #364c49;
      }

      .cls-2, .cls-3, .cls-11, .cls-4 {
        fill: none;
      }

      .cls-12, .cls-13 {
        letter-spacing: -.03em;
      }

      .cls-3 {
        stroke: #997e2e;
        stroke-width: 1.28px;
      }

      .cls-14 {
        letter-spacing: .07em;
      }

      .cls-8 {
        letter-spacing: -.02em;
      }

      .cls-9 {
        letter-spacing: -.03em;
      }

      .cls-11 {
        stroke: #593d28;
        stroke-miterlimit: 10;
        stroke-width: 1.6px;
      }

      .cls-15 {
        font-size: 24px;
      }

      .cls-4 {
        stroke: #59364a;
        stroke-width: .96px;
      }

      .cls-16 {
        letter-spacing: -.04em;
      }

      .cls-17 {
        letter-spacing: -.01em;
      }

      .cls-18 {
        font-size: 12px;
      }

      .cls-19, .cls-13 {
        font-size: 28px;
      }

      .cls-20 {
        fill: #f2e9ce;
      }

      .cls-20, .cls-21, .cls-22, .cls-23, .cls-24, .cls-25, .cls-26, .cls-27, .cls-28, .cls-29, .cls-30, .cls-31, .cls-32, .cls-33, .cls-34, .cls-35, .cls-36, .cls-37, .cls-38, .cls-39, .cls-40, .cls-41, .cls-42, .cls-43, .cls-44, .cls-45, .cls-46, .cls-5, .cls-47, .cls-48, .cls-49, .cls-50 {
        stroke-width: 0px;
      }

      .cls-21 {
        fill: #4b42a6;
      }

      .cls-22 {
        fill: #73e5d2;
      }

      .cls-23 {
        fill: #74a65b;
      }

      .cls-24 {
        fill: #5270cc;
      }

      .cls-25 {
        fill: #787380;
      }

      .cls-26 {
        fill: #60bfaf;
      }

      .cls-27 {
        fill: #593d28;
      }

      .cls-28 {
        fill: #59364a;
      }

      .cls-29 {
        fill: #2e2e73;
      }

      .cls-30 {
        fill: #364c49;
      }

      .cls-31 {
        fill: #c4ace5;
      }

      .cls-32 {
        fill: #c76;
      }

      .cls-33 {
        fill: #cc4c33;
      }

      .cls-34 {
        fill: #ccc7b8;
      }

      .cls-35 {
        fill: #d9b341;
      }

      .cls-36 {
        fill: #bf2626;
      }

      .cls-37 {
        fill: #a3cc7a;
      }

      .cls-38 {
        fill: #d98282;
      }

      .cls-39 {
        fill: #a88fcc;
      }

      .cls-40 {
        fill: #b25968;
      }

      .cls-41 {
        fill: #b27950;
      }

      .cls-42 {
        fill: #73622e;
      }

      .cls-43 {
        fill: #98d977;
      }

      .cls-44 {
        fill: #804c33;
      }

      .cls-45 {
        fill: #997e2e;
      }

      .cls-46 {
        fill: #ffad73;
      }

      .cls-47 {
        fill: #fec;
      }

      .cls-48 {
        fill: #ffe5e5;
      }

      .cls-49 {
        fill: #f24949;
      }

      .cls-50 {
        fill: #f291ca;
      }
    </style>
  </defs>
  <g id="Background">
    <rect class="cls-34" width="800" height="400"/>
    <rect class="cls-37" x="530" width="270" height="400"/>
    <rect class="cls-38" width="270" height="400"/>
  </g>
  <g id="Assets">
    <g>
      <g>
        <path class="cls-41" d="m282.5,85.33s-14.59-57.14,109.71-46.35c0,0,125.16-19.18,114.22,40.56l-223.93,5.79Z"/>
        <path class="cls-41" d="m295.34,162.89s-10.26,36.66-8.98,50.52c0,0,12.73,19.32,114.72,9.66,0,0,98.63,9.19,114.58,2.7,0,0,9.05-17.02-4.92-57.1l-215.4-5.78Z"/>
        <path class="cls-44" d="m322.84,41.62s18.72,107.91-5.8,182.27c0,0,20.52,3.22,47.52,1.62,0,0-5.42-163.28,8.59-187.7,0,0-31.59-2.81-50.32,3.82Z"/>
        <path class="cls-44" d="m489.61,228.08s-22.32-135.23-15.35-187.85c0,0-14.22-5.12-38.94-4.18,0,0,16.89,160.6,8.72,189.9l45.56,2.13Z"/>
        <path class="cls-27" d="m288.07,193.25l-1.24,9.46s56.51,10.69,108.24,3.13c0,0,115.77,5.45,122.81-7.98,0,0,.32-9.24-4.3-14.27l-225.5,9.66Z"/>
        <path class="cls-27" d="m282.5,85.33s-2.35-3.62,0-11.03c0,0,40-13.32,117.27-9.19,0,0,83.18-10.76,106.68.95,0,0,5.02,3.08-.02,13.49l-223.93,5.79Z"/>
        <path class="cls-27" d="m385.49,76.34s-1.77-15.19,3.27-23.16c0,0,9.66-4.2,19.32,0,0,0,4.29,12.81,3.87,26.19l-26.46-3.02Z"/>
        <g>
          <circle class="cls-46" cx="397.46" cy="61.51" r="3.62"/>
          <polygon class="cls-46" points="397.46 61.51 393.85 69.65 401.08 69.65 397.46 61.51"/>
        </g>
      </g>
      <g>
        <path class="cls-27" d="m500.55,72.73s11.37,86.08,10.09,114.64l-25.63,5.04-12.18-116.06,27.72-3.61Z"/>
        <path class="cls-27" d="m288.04,89.68s7.72,66.9,9.54,102.03l19.46,4.36v-113.47l-29,7.08Z"/>
        <path class="cls-40" d="m295.34,86.17s21.84,66.07,2.24,105.54c0,0,38.28,8.8,81.19,1.4,0,0,50.67,2.24,69.43-1.4,0,0,42.37,4.2,55.99-6,0,0-10.78-48.31-7.49-99.54,0,0-19.94-16.62-54.1-6.63,0,0-71.39-.09-87.34,4.11,0,0-27.16-5.32-59.91,2.52Z"/>
        <path class="cls-20" d="m282.5,85.33s1.79,41.86,26.98,53.89c0,0,4.2-41.71,0-53.89,0,0,13.02,9.66,24.78,14.7,0,0,9.24-9.24,13.02-16.8,0,0,2.52,16.2,7.56,19.65,0,0,8.4-10.41,12.18-19.65,0,0,3.78,8.03,12.6,14.72,0,0,10.08-8,10.08-14.72,0,0-.84,14.02,3.78,19.82,0,0,12.18-9.74,13.02-19.82,0,0,1.68,8.64,9.24,19.65,0,0,11.34-6.63,11.76-19.65,0,0,3.49,10.5,14.55,17.22,0,0,13.18-8.4,16.11-18.9,0,0-.43,10.74,4.61,21.33,0,0,11.76-10.83,13.44-21.33,0,0,18.43,15.34,13.41,50.92,0,0,17.66-6.23,16.82-52.93,0,0,.42-20.95-29.39-10.31,0,0-9.64-8.68-18.89,2.66,0,0-11.95-11.67-32.35,2.1,0,0-10.5-6.72-18.48,2.52,0,0-5.46-5.88-16.8.42,0,0-8.4-9.66-23.94-.42,0,0-4.62-7.98-19.32-.42,0,0-16.38-11.92-38.21,3.28,0,0-19.95-7.9-26.56,5.96Z"/>
        <path class="cls-20" d="m517.77,180.97c1.68-26.14-17.64-38.36-17.64-38.36-10.5,23.69-3.43,43.1-3.43,43.1,0,0-2.96-4.83-22.44-4.73,0,0-3.52.52-11.5,8.5,0,0-8.82-8.91-15.54-10.75,0,0-7.56,2.35-11.34,10.75,0,0-4.62-9.75-8.4-10.75,0,0-6.67,7.39-9.21,12.01,0,0,1.66-16.38-2.54-18.48,0,0-8.82,7.56-10.5,18.48,0,0-.92-13.86-8.44-18.9,0,0-9.2,13.44-9.2,18.9,0,0-4.32-12.18-10.14-15.96,0,0-6.55,10.5-4.3,15.96,0,0-7.09-10.92-13.96-15.96,0,0-5.62,2.1-11.5,15.96,0,0-3.67-11.84-11.71-12.01,0,0-5.51,4.03-11.81,14.53,0,0,2.1-15.54,0-19.74,0,0-6.8,2.94-11.59,18.06,0,0-6.05-22.8-4.37-39.89,0,0-21,7.14-20.16,41.57,0,0,9.15,12.6,24.52,6.72,0,0,5.71,4.2,10.75-2.1,0,0,5.88,9.66,19.74-1.26,0,0,13.54,13.45,30.08.42,0,0,3.94,11.34,15.69-.42,0,0,4.28,7.14,14.11-.42,0,0,6.94,7.56,15.31,2.1,0,0,10.89,4.62,17.19-3.36,0,0,14.03,11.74,22.69,1.26,0,0,22.52,9.24,38.55-1.68,0,0,19.81,6.1,21.07-13.54Z"/>
      </g>
      <g>
        <path class="cls-5" d="m335.99,114.82c-.03,2.34-.33,4.61-.88,6.83-.55,2.22-1.39,4.34-2.53,6.37-1.07,1.93-2.3,3.72-3.71,5.39-1.41,1.67-3.01,3.15-4.79,4.46-.45.34-.91.64-1.39.9-.48.26-1,.47-1.55.64-.17.03-.36.07-.57.1-.21.03-.4.07-.57.1-.86.07-1.68-.21-2.45-.82-.77-.62-1.19-1.37-1.26-2.27,0-.24.03-.46.08-.67.05-.21.18-.36.39-.46.24-.07.36-.18.36-.34s-.02-.3-.05-.44c-.31-1.31-.57-2.68-.77-4.12-.14-.89-.28-1.8-.44-2.71-.15-.91-.27-1.83-.34-2.76-.21-2.54-.4-5.09-.57-7.63-.17-2.54-.34-5.09-.52-7.63v-2.78c0-.58.09-1.12.26-1.6.17-.48.41-.98.72-1.5.82-1.27,1.81-2.27,2.96-2.99,1.15-.72,2.47-1.22,3.94-1.49,1.51-.27,2.92-.2,4.23.23,1.31.43,2.54,1.11,3.71,2.04,1.68,1.38,2.97,2.98,3.87,4.82.89,1.84,1.46,3.84,1.7,6.01.07.24.1.47.1.7s.02.47.05.75v.88Zm-15.47,21.19c.27-.14.52-.29.72-.46.21-.17.41-.33.62-.46,1-.86,1.9-1.8,2.71-2.84.81-1.03,1.57-2.1,2.29-3.2,1-1.48,1.8-3.04,2.4-4.69.6-1.65,1.07-3.32,1.42-5,.34-1.72.48-3.42.41-5.1-.07-1.68-.45-3.35-1.13-5-.24-.62-.54-1.22-.9-1.8-.36-.58-.78-1.1-1.26-1.55-.96-1-1.97-1.57-3.02-1.73-1.05-.15-2.04-.03-2.96.36-.93.4-1.74.94-2.42,1.62-.14.14-.24.28-.31.41-.07.14-.1.31-.1.52,0,.34,0,.7.03,1.06.02.36.04.73.08,1.11.24,1.79.42,3.61.54,5.46.12,1.86.25,3.7.39,5.52.07.86.14,1.73.21,2.6.07.88.12,1.76.15,2.66.07,1.58.1,3.15.1,4.69v4.74c0,.14,0,.3-.03.49-.02.19,0,.39.08.59Z"/>
        <path class="cls-5" d="m339.91,111.57c0-1.41.03-2.71.08-3.89.05-1.19.18-2.36.39-3.53.17-.79.36-1.56.57-2.32.21-.76.53-1.48.98-2.17.31-.58.69-1.05,1.13-1.39.27-.17.57-.27.88-.31.31-.03.58.03.82.21.31.14.52.34.62.62.1.28.15.57.15.88-.07.86-.15,1.69-.23,2.5-.09.81-.16,1.64-.23,2.5-.07,1.31-.15,2.62-.23,3.94-.09,1.32-.11,2.64-.08,3.94.07,1.89.22,3.76.46,5.59.24,1.84.6,3.67,1.08,5.49.24.93.54,1.85.9,2.76.36.91.76,1.8,1.21,2.66.31.62.67,1.19,1.08,1.73.41.53.84,1.04,1.29,1.52.17.24.36.4.57.46.72.58,1.46.6,2.22.05.52-.34.97-.73,1.37-1.16.39-.43.76-.88,1.11-1.37,1.48-2.1,2.71-4.4,3.71-6.91.69-1.62,1.25-3.26,1.7-4.92.45-1.67.79-3.38,1.03-5.13.17-.96.27-1.92.31-2.89.03-.96.09-1.92.15-2.89.07-1.13.13-2.26.18-3.38.05-1.12,0-2.24-.18-3.38,0-.34.07-.7.21-1.08.24-.69.69-1.06,1.34-1.11.65-.05,1.17.15,1.55.59.27.24.48.54.62.9.14.36.24.73.31,1.11v.36c0,2.78-.04,5.58-.13,8.38-.09,2.8-.44,5.58-1.06,8.33-.17.93-.4,1.83-.67,2.71-.28.88-.57,1.76-.88,2.66-.41,1.41-.92,2.79-1.52,4.15-.6,1.36-1.28,2.67-2.04,3.94-.45.76-.95,1.49-1.5,2.19-.55.7-1.15,1.37-1.8,1.99-.86.82-1.8,1.43-2.81,1.8-1.01.38-2.12.48-3.33.31-.82-.17-1.51-.46-2.06-.88-.86-.48-1.61-1.08-2.24-1.8-.64-.72-1.23-1.51-1.78-2.37-.96-1.48-1.77-3.03-2.42-4.67-.65-1.63-1.17-3.33-1.55-5.08-.45-2.03-.77-4.03-.98-6.01-.21-1.98-.31-3.86-.31-5.65Z"/>
        <path class="cls-5" d="m375.54,117.6c-.07.55-.1,1.07-.08,1.57.02.5.03,1.02.03,1.57-.03,1.17-.05,2.32-.05,3.45s-.03,2.25-.1,3.35c-.07,1.62-.12,3.22-.15,4.82-.03,1.6-.02,3.19.05,4.77v.26c0,.72-.17,1.1-.52,1.13-.52.1-.91-.21-1.19-.93-.14-.69-.26-1.39-.36-2.11-.1-.72-.21-1.43-.31-2.11-.14-.76-.26-1.5-.36-2.22-.1-.72-.22-1.46-.36-2.22-.1-.69-.19-1.37-.26-2.06-.07-.69-.14-1.36-.21-2.01-.21-2.3-.36-4.5-.46-6.6-.14-2.03-.23-4.06-.28-6.08-.05-2.03-.08-4.07-.08-6.14,0-.65.04-1.31.13-1.96.09-.65.21-1.31.39-1.96.07-.17.12-.33.15-.46.03-.14.12-.27.26-.41.31-.55.76-.86,1.34-.93.58-.07,1.08.14,1.5.62.24.24.46.51.67.8.21.29.38.63.52,1.01.65,1.58,1.25,3.17,1.78,4.77.53,1.6,1.04,3.21,1.52,4.82.55,1.79,1.15,3.54,1.8,5.26.65,1.72,1.34,3.42,2.06,5.1.48,1.17,1,2.3,1.55,3.4.55,1.1,1.15,2.2,1.8,3.3.1.14.2.3.28.49.09.19.25.34.49.44.03-.65.07-1.29.1-1.91.03-.62.05-1.22.05-1.8v-3.02c0-1.01-.03-2.02-.1-3.02-.07-1.82-.1-3.64-.08-5.46.02-1.82.03-3.63.03-5.41,0-1.07,0-2.11-.03-3.12-.02-1.01-.06-2.02-.13-3.02,0-.24-.02-.45-.05-.62-.03-.17-.17-.33-.41-.46-.24-.1-.34-.27-.28-.52.05-.24.16-.43.34-.57.38-.17.76-.23,1.16-.18.39.05.66.3.8.75.17.31.3.63.39.95.09.33.16.64.23.95.41,1.82.69,3.66.82,5.52.14,1.86.27,3.71.41,5.57.07,1.89.18,3.76.34,5.62.15,1.86.3,3.75.44,5.67.03,1.1.08,2.19.13,3.27.05,1.08.06,2.17.03,3.27-.03.55-.08,1.08-.13,1.6-.05.52-.16,1.01-.34,1.5-.24.89-.76,1.49-1.55,1.8-.79.31-1.6.26-2.42-.15-.34-.21-.65-.46-.93-.75-.28-.29-.55-.61-.82-.95-.76-.86-1.46-1.77-2.11-2.73-.65-.96-1.27-1.94-1.86-2.94-.72-1.41-1.41-2.84-2.06-4.3-.65-1.46-1.27-2.93-1.86-4.41-.24-.62-.46-1.23-.67-1.83-.21-.6-.43-1.21-.67-1.83-.03-.03-.06-.08-.08-.13-.02-.05-.1-.08-.23-.08Z"/>
        <path class="cls-5" d="m408.33,119.15c-.41.1-.81.2-1.19.28-.38.09-.76.2-1.13.33-.76.17-1.34-.02-1.75-.57-.48-.65-.52-1.34-.1-2.06.14-.24.31-.44.52-.59.21-.15.43-.3.67-.44.34-.17.69-.29,1.03-.36.34-.07.69-.12,1.03-.15,1-.14,2.02-.27,3.07-.39,1.05-.12,2.07-.18,3.07-.18.79,0,1.57,0,2.35.03.77.02,1.54.11,2.29.28.31.03.62.11.93.23.31.12.62.28.93.49.48.38.64.81.46,1.29-.17.55-.58.79-1.24.72-.76-.07-1.5-.1-2.22-.1s-1.48.03-2.27.1c-.07.03-.16.05-.28.05h-.28c-.48.14-.76.23-.82.28-.07.05-.1.32-.1.8-.07,1.24-.15,2.47-.23,3.69-.09,1.22-.18,2.45-.28,3.69-.14.86-.3,1.75-.49,2.68-.19.93-.37,1.84-.54,2.73-.07.76-.17,1.52-.31,2.29-.14.77-.26,1.56-.36,2.35v.36c-.28.79-.72,1.24-1.34,1.34-.76,0-1.27-.39-1.55-1.19-.1-.48-.15-.96-.15-1.44s-.02-.94-.05-1.39c-.03-.21-.04-.39-.03-.57.02-.17,0-.34-.08-.52-.31.55-.62,1.08-.93,1.6-.31.52-.64,1.01-.98,1.5-.34.45-.72.86-1.13,1.24-.41.38-.86.7-1.34.98-.76.45-1.62.62-2.6.52-.98-.1-1.81-.53-2.5-1.29-.38-.48-.72-.96-1.03-1.44-.31-.48-.57-1-.77-1.55-.31-.82-.56-1.68-.75-2.55-.19-.88-.32-1.76-.39-2.66-.24-1.86-.34-3.71-.28-5.57.05-1.86.2-3.71.44-5.57.24-1.72.58-3.4,1.03-5.05.45-1.65,1-3.28,1.65-4.9.89-2.03,2.08-3.97,3.56-5.83.48-.48,1-.94,1.55-1.37.55-.43,1.15-.8,1.8-1.11.89-.38,1.92-.49,3.07-.34,1.15.15,2.14.78,2.96,1.88.41.58.79,1.18,1.13,1.78.34.6.58,1.28.72,2.04.03.17.04.36.03.57-.02.21-.06.4-.13.57-.1.31-.26.49-.46.54s-.43-.04-.67-.28c-.14-.14-.26-.28-.36-.44-.1-.15-.22-.3-.36-.44-.24-.34-.52-.66-.85-.95-.33-.29-.68-.54-1.06-.75-.45-.27-.85-.39-1.21-.34-.36.05-.73.22-1.11.49-.58.45-1.1.96-1.55,1.55-.45.58-.86,1.19-1.24,1.8-.69,1.17-1.27,2.37-1.75,3.61-.48,1.24-.88,2.51-1.19,3.82-.38,1.48-.65,2.98-.82,4.51-.17,1.53-.29,3.07-.36,4.61,0,1.24.04,2.48.13,3.74.09,1.26.3,2.5.64,3.74.17.76.43,1.48.77,2.17.17.31.31.47.41.49.1.02.27-.09.52-.33.52-.41.94-.88,1.29-1.42.34-.53.67-1.09.98-1.68.41-.86.78-1.74,1.11-2.66.33-.91.63-1.8.9-2.66.52-1.72.98-3.42,1.39-5.1.14-.41.21-.93.21-1.55Z"/>
        <path class="cls-5" d="m422.97,119.15c-.1-1.51-.14-3.02-.1-4.54.03-1.51.02-3.02-.05-4.54-.03-.58-.03-1.17.03-1.75.05-.58.09-1.15.13-1.7,0-.27-.02-.52-.05-.72-.03-.21-.14-.43-.31-.67-.38-.48-.52-1.01-.44-1.57.09-.57.39-1.02.9-1.37.62-.48,1.25-.77,1.91-.88,1.24-.17,2.47-.36,3.71-.57,1.24-.21,2.47-.33,3.71-.36.58,0,1.16,0,1.73.03.57.02,1.13.09,1.68.23.82.21,1.55.64,2.17,1.29.55.58.64,1.2.26,1.86-.45.62-1.05.77-1.8.46-.41-.17-.84-.25-1.29-.23-.45.02-.91.04-1.39.08-.93.14-1.84.31-2.73.52-.89.21-1.79.4-2.68.57-.48.1-.72.36-.72.77.14,1.99.18,4.01.13,6.06-.05,2.05-.04,4.08.03,6.11.07.41.14.64.21.7.07.05.29.04.67-.03.62-.1,1.25-.15,1.88-.15s1.26-.02,1.88-.05h1.42c.46,0,.95.02,1.47.05.79,0,1.27.36,1.44,1.08.1.69-.22,1.2-.98,1.55-.45.24-.95.4-1.52.49-.57.09-1.09.18-1.57.28-1.38.24-2.72.45-4.02.62-.28.03-.45.12-.52.26-.07.14-.1.34-.1.62.1,1.38.24,2.76.41,4.15.17,1.39.39,2.76.67,4.1.17.86.34,1.33.49,1.42.15.09.63-.13,1.42-.64.93-.58,1.8-1.25,2.63-1.99.83-.74,1.58-1.54,2.27-2.4.34-.45.7-.76,1.08-.93.41-.21.81-.19,1.19.05.38.24.57.6.57,1.08-.03.14-.06.28-.08.44-.02.15-.06.32-.13.49-.14.69-.45,1.34-.93,1.96-1.65,2.48-3.7,4.55-6.14,6.24-1.17.76-2.28.98-3.33.67-1.05-.31-1.87-.96-2.45-1.96-.52-.82-.89-1.68-1.11-2.55-.22-.88-.42-1.78-.59-2.71-.24-1.37-.43-2.77-.57-4.18-.14-1.41-.24-2.8-.31-4.18-.03-.58-.05-1.17-.05-1.75s-.03-1.19-.1-1.8Z"/>
        <path class="cls-5" d="m442.66,120.85c0-1.48.09-2.95.26-4.41.17-1.46.39-2.91.67-4.36.27-1.34.61-2.66,1.01-3.97.39-1.31.88-2.58,1.47-3.82.27-.58.58-1.13.9-1.62.33-.5.71-.97,1.16-1.42.31-.31.67-.58,1.08-.82.38-.14.7-.32.95-.54.26-.22.51-.46.75-.7.79-.69,1.62-.89,2.47-.62,1.99.38,3.54,1.36,4.64,2.94.55.76,1.03,1.56,1.44,2.4.41.84.79,1.69,1.13,2.55,1.03,2.65,1.8,5.35,2.29,8.12.5,2.77.66,5.58.49,8.43-.14,1.58-.34,3.15-.62,4.72-.28,1.56-.69,3.09-1.24,4.56-.38,1.17-.89,2.24-1.52,3.22-.64.98-1.42,1.87-2.35,2.66-1.13.93-2.33,1.59-3.58,1.99-1.26.39-2.59.35-4-.13-.76-.24-1.44-.62-2.04-1.13-.6-.52-1.14-1.1-1.62-1.75-.65-.89-1.18-1.83-1.57-2.81-.4-.98-.75-2-1.06-3.07-.41-1.55-.7-3.13-.88-4.74-.17-1.62-.26-3.23-.26-4.85v-.82Zm9.18-17.17c-.17.07-.29.17-.36.31-.07.14-.12.26-.15.36-.21.45-.4.87-.57,1.26-.17.4-.34.8-.52,1.21-.89,2.13-1.56,4.31-1.99,6.55-.43,2.23-.68,4.49-.75,6.75-.03,1.07-.03,2.11.03,3.15.05,1.03.15,2.1.28,3.2.14,1,.33,1.99.57,2.99.24,1,.55,1.96.93,2.89.17.38.35.76.54,1.13.19.38.42.72.7,1.03,1.13,1.41,2.44,1.67,3.92.77.69-.38,1.26-.86,1.73-1.44.46-.58.85-1.2,1.16-1.86.31-.76.58-1.5.83-2.24.24-.74.43-1.49.57-2.24.27-1.44.41-2.88.41-4.3s-.09-2.88-.26-4.36c-.14-1.06-.34-2.1-.59-3.12-.26-1.01-.52-2.02-.8-3.02-.31-1.1-.64-2.17-1.01-3.2-.36-1.03-.78-2.04-1.26-3.04-.17-.48-.39-.94-.64-1.39-.26-.45-.58-.84-.95-1.19-.21-.21-.36-.26-.46-.15-.28.28-.52.36-.72.26s-.41-.21-.62-.31Z"/>
        <path class="cls-5" d="m472.05,117.6c-.07.55-.1,1.07-.08,1.57.02.5.03,1.02.03,1.57-.03,1.17-.05,2.32-.05,3.45s-.03,2.25-.1,3.35c-.07,1.62-.12,3.22-.15,4.82-.03,1.6-.02,3.19.05,4.77v.26c0,.72-.17,1.1-.52,1.13-.52.1-.91-.21-1.19-.93-.14-.69-.26-1.39-.36-2.11-.1-.72-.21-1.43-.31-2.11-.14-.76-.26-1.5-.36-2.22-.1-.72-.22-1.46-.36-2.22-.1-.69-.19-1.37-.26-2.06-.07-.69-.14-1.36-.21-2.01-.21-2.3-.36-4.5-.46-6.6-.14-2.03-.23-4.06-.28-6.08-.05-2.03-.08-4.07-.08-6.14,0-.65.04-1.31.13-1.96.09-.65.21-1.31.39-1.96.07-.17.12-.33.15-.46.03-.14.12-.27.26-.41.31-.55.76-.86,1.34-.93.58-.07,1.08.14,1.5.62.24.24.46.51.67.8.21.29.38.63.52,1.01.65,1.58,1.25,3.17,1.78,4.77.53,1.6,1.04,3.21,1.52,4.82.55,1.79,1.15,3.54,1.8,5.26.65,1.72,1.34,3.42,2.06,5.1.48,1.17,1,2.3,1.55,3.4.55,1.1,1.15,2.2,1.8,3.3.1.14.2.3.28.49.09.19.25.34.49.44.03-.65.07-1.29.1-1.91.03-.62.05-1.22.05-1.8v-3.02c0-1.01-.03-2.02-.1-3.02-.07-1.82-.1-3.64-.08-5.46.02-1.82.03-3.63.03-5.41,0-1.07,0-2.11-.03-3.12-.02-1.01-.06-2.02-.13-3.02,0-.24-.02-.45-.05-.62-.03-.17-.17-.33-.41-.46-.24-.1-.34-.27-.28-.52.05-.24.16-.43.34-.57.38-.17.76-.23,1.16-.18.39.05.66.3.8.75.17.31.3.63.39.95.09.33.16.64.23.95.41,1.82.69,3.66.82,5.52.14,1.86.27,3.71.41,5.57.07,1.89.18,3.76.34,5.62.15,1.86.3,3.75.44,5.67.03,1.1.08,2.19.13,3.27.05,1.08.06,2.17.03,3.27-.03.55-.08,1.08-.13,1.6-.05.52-.16,1.01-.34,1.5-.24.89-.76,1.49-1.55,1.8-.79.31-1.6.26-2.42-.15-.34-.21-.65-.46-.93-.75-.28-.29-.55-.61-.82-.95-.76-.86-1.46-1.77-2.11-2.73-.65-.96-1.27-1.94-1.86-2.94-.72-1.41-1.41-2.84-2.06-4.3-.65-1.46-1.27-2.93-1.86-4.41-.24-.62-.46-1.23-.67-1.83-.21-.6-.43-1.21-.67-1.83-.03-.03-.06-.08-.08-.13-.02-.05-.1-.08-.23-.08Z"/>
        <path class="cls-5" d="m329.87,152.77c-.26.37-.48.72-.67,1.05-.19.33-.35.65-.49.97-.52.89-1,1.8-1.46,2.73-.46.93-.92,1.88-1.37,2.86-.37.75-.73,1.5-1.07,2.28-.34.77-.7,1.56-1.07,2.36-.29.72-.85,1.1-1.68,1.16-.37.03-.71-.04-1.01-.21-.3-.17-.57-.41-.79-.73-.29-.46-.5-.97-.64-1.55-.34-1.2-.71-2.39-1.1-3.57-.39-1.17-.71-2.35-.97-3.52-.03-.26-.16-.52-.39-.77,0,.46-.04.89-.13,1.29-.06,1.43-.12,2.88-.19,4.34-.07,1.46-.14,2.91-.19,4.34-.06,1.06-.15,2.12-.28,3.18-.13,1.06-.27,2.13-.41,3.22-.03.34-.06.68-.11,1.01-.04.33-.09.68-.15,1.05-.03.2-.1.39-.21.58-.11.19-.3.31-.56.37-.23.11-.47.12-.71.02-.24-.1-.44-.28-.58-.54-.11-.14-.19-.31-.24-.49-.04-.19-.09-.38-.15-.58-.2-1.23-.37-2.48-.49-3.74-.13-1.26-.18-2.51-.15-3.74.06-2.78.19-5.51.39-8.21.09-.92.16-1.83.21-2.75.06-.92.11-1.85.17-2.79.06-.74.14-1.5.24-2.26.1-.76.25-1.51.45-2.26.06-.23.12-.45.19-.67.07-.21.16-.42.28-.62.54-.86,1.29-1.16,2.23-.9.66.17,1.16.46,1.5.86.34.4.62.89.82,1.46.57,1.55,1.08,3.11,1.53,4.7.44,1.59.91,3.19,1.4,4.79.09.34.19.7.3,1.07.11.37.23.75.34,1.12.2-.06.32-.16.37-.32.04-.16.09-.29.15-.41.66-1.06,1.25-2.15,1.76-3.27.52-1.12,1.09-2.22,1.72-3.31.4-.74.83-1.48,1.29-2.21.46-.73.93-1.45,1.42-2.17.09-.14.18-.31.28-.49.1-.19.18-.37.24-.54.09-.4.29-.73.62-.99.33-.26.68-.4,1.05-.43.4-.03.78.06,1.14.26.36.2.62.49.79.86.14.2.24.44.28.73.04.29.08.56.11.82.06.72.09,1.46.11,2.23.01.77.04,1.55.06,2.32,0,1.86-.04,3.72-.11,5.59-.07,1.86-.18,3.72-.32,5.59-.06.63-.09,1.28-.09,1.95s-.01,1.35-.04,2.04c-.06,1.37-.09,2.76-.11,4.15-.01,1.39-.02,2.77-.02,4.15,0,.63-.26,1.02-.77,1.16-.57.11-.99-.1-1.25-.64-.23-.49-.37-1.02-.43-1.59-.11-.66-.19-1.32-.21-2-.03-.67-.07-1.32-.13-1.95-.09-1.17-.14-2.36-.17-3.57-.03-1.2-.1-2.39-.21-3.57-.14-1.78-.23-3.55-.26-5.33-.03-1.78-.03-3.55,0-5.33v-.21c0-.09-.01-.23-.04-.43Z"/>
        <path class="cls-5" d="m341.17,151.23c-.06,2.03-.11,3.98-.17,5.84-.06,1.86-.07,3.69-.04,5.5.06,1.29.09,2.58.11,3.87.01,1.29.05,2.56.11,3.82.03.8.05,1.6.06,2.41.01.8.08,1.59.19,2.36.06.49.14.96.26,1.42.09.32.11.56.06.73-.04.17-.19.33-.45.47-.26.17-.53.23-.82.17-.29-.06-.52-.21-.69-.47-.2-.32-.37-.66-.52-1.03-.14-.37-.24-.74-.3-1.12-.2-1.17-.37-2.36-.49-3.57-.13-1.2-.25-2.39-.37-3.57-.09-1.55-.18-3.09-.28-4.62-.1-1.53-.19-3.07-.28-4.62-.11-1.6-.2-3.2-.26-4.79-.06-1.59.03-3.19.26-4.79.06-.43.14-.85.26-1.27.11-.41.21-.84.3-1.27.09-.32.24-.63.47-.95.14-.2.3-.36.47-.47.17-.11.4-.17.69-.17.26.03.47.13.62.3.16.17.26.37.32.6.17.46.28.91.32,1.35.04.44.06.91.06,1.4.06.46.1.91.13,1.35.03.44.01.81-.04,1.1Z"/>
        <path class="cls-5" d="m362.31,152.77c-.26.37-.48.72-.67,1.05-.19.33-.35.65-.49.97-.52.89-1,1.8-1.46,2.73-.46.93-.92,1.88-1.37,2.86-.37.75-.73,1.5-1.07,2.28-.34.77-.7,1.56-1.07,2.36-.29.72-.85,1.1-1.68,1.16-.37.03-.71-.04-1.01-.21-.3-.17-.57-.41-.79-.73-.29-.46-.5-.97-.64-1.55-.34-1.2-.71-2.39-1.1-3.57-.39-1.17-.71-2.35-.97-3.52-.03-.26-.16-.52-.39-.77,0,.46-.04.89-.13,1.29-.06,1.43-.12,2.88-.19,4.34-.07,1.46-.14,2.91-.19,4.34-.06,1.06-.15,2.12-.28,3.18-.13,1.06-.27,2.13-.41,3.22-.03.34-.06.68-.11,1.01-.04.33-.09.68-.15,1.05-.03.2-.1.39-.21.58-.11.19-.3.31-.56.37-.23.11-.47.12-.71.02-.24-.1-.44-.28-.58-.54-.11-.14-.19-.31-.24-.49-.04-.19-.09-.38-.15-.58-.2-1.23-.37-2.48-.49-3.74-.13-1.26-.18-2.51-.15-3.74.06-2.78.19-5.51.39-8.21.09-.92.16-1.83.21-2.75.06-.92.11-1.85.17-2.79.06-.74.14-1.5.24-2.26.1-.76.25-1.51.45-2.26.06-.23.12-.45.19-.67.07-.21.16-.42.28-.62.54-.86,1.29-1.16,2.23-.9.66.17,1.16.46,1.5.86.34.4.62.89.82,1.46.57,1.55,1.08,3.11,1.53,4.7.44,1.59.91,3.19,1.4,4.79.09.34.19.7.3,1.07.11.37.23.75.34,1.12.2-.06.32-.16.37-.32.04-.16.09-.29.15-.41.66-1.06,1.25-2.15,1.76-3.27.52-1.12,1.09-2.22,1.72-3.31.4-.74.83-1.48,1.29-2.21.46-.73.93-1.45,1.42-2.17.09-.14.18-.31.28-.49.1-.19.18-.37.24-.54.09-.4.29-.73.62-.99.33-.26.68-.4,1.05-.43.4-.03.78.06,1.14.26.36.2.62.49.79.86.14.2.24.44.28.73.04.29.08.56.11.82.06.72.09,1.46.11,2.23.01.77.04,1.55.06,2.32,0,1.86-.04,3.72-.11,5.59-.07,1.86-.18,3.72-.32,5.59-.06.63-.09,1.28-.09,1.95s-.01,1.35-.04,2.04c-.06,1.37-.09,2.76-.11,4.15-.01,1.39-.02,2.77-.02,4.15,0,.63-.26,1.02-.77,1.16-.57.11-.99-.1-1.25-.64-.23-.49-.37-1.02-.43-1.59-.11-.66-.19-1.32-.21-2-.03-.67-.07-1.32-.13-1.95-.09-1.17-.14-2.36-.17-3.57-.03-1.2-.1-2.39-.21-3.57-.14-1.78-.23-3.55-.26-5.33-.03-1.78-.03-3.55,0-5.33v-.21c0-.09-.01-.23-.04-.43Z"/>
        <path class="cls-5" d="m373.61,151.23c-.06,2.03-.11,3.98-.17,5.84-.06,1.86-.07,3.69-.04,5.5.06,1.29.09,2.58.11,3.87.01,1.29.05,2.56.11,3.82.03.8.05,1.6.06,2.41.01.8.08,1.59.19,2.36.06.49.14.96.26,1.42.09.32.11.56.06.73-.04.17-.19.33-.45.47-.26.17-.53.23-.82.17-.29-.06-.52-.21-.69-.47-.2-.32-.37-.66-.52-1.03-.14-.37-.24-.74-.3-1.12-.2-1.17-.37-2.36-.49-3.57-.13-1.2-.25-2.39-.37-3.57-.09-1.55-.18-3.09-.28-4.62-.1-1.53-.19-3.07-.28-4.62-.11-1.6-.2-3.2-.26-4.79-.06-1.59.03-3.19.26-4.79.06-.43.14-.85.26-1.27.11-.41.21-.84.3-1.27.09-.32.24-.63.47-.95.14-.2.3-.36.47-.47.17-.11.4-.17.69-.17.26.03.47.13.62.3.16.17.26.37.32.6.17.46.28.91.32,1.35.04.44.06.91.06,1.4.06.46.1.91.13,1.35.03.44.01.81-.04,1.1Z"/>
        <path class="cls-5" d="m377.47,161.62c0-1.72.14-3.39.43-5.03.29-1.63.76-3.22,1.42-4.77.49-1.32,1.22-2.55,2.19-3.69.4-.4.82-.77,1.25-1.12.43-.34.9-.62,1.42-.82.86-.4,1.82-.46,2.88-.17,1.06.29,1.9.97,2.53,2.06.34.63.56,1.28.64,1.96s-.03,1.37-.34,2.08c-.03.2-.11.37-.26.52-.14.2-.32.29-.52.28-.2-.01-.37-.12-.52-.32-.03-.11-.06-.21-.09-.3-.03-.09-.06-.19-.09-.3-.17-.6-.47-1.05-.9-1.35s-.93-.55-1.5-.75c-.2-.06-.37-.04-.52.06-.14.1-.29.21-.43.32-.29.26-.54.54-.77.86-.23.32-.44.63-.64.95-.37.66-.69,1.35-.97,2.08-.27.73-.49,1.47-.67,2.21-.4,2.06-.58,4.1-.54,6.12.04,2.02.38,4.05,1.01,6.08.29,1.2.86,2.33,1.72,3.39.37.46.83.85,1.37,1.16.54.37,1.04.51,1.48.41.44-.1.87-.38,1.27-.84.31-.32.57-.64.77-.97.2-.33.4-.65.6-.97.09-.17.18-.33.28-.47.1-.14.19-.27.28-.39.43-.43.89-.52,1.37-.26.23.11.41.29.54.52.13.23.16.47.11.73-.26.97-.6,1.91-1.03,2.81s-1.07,1.68-1.93,2.34c-1.49,1.15-3.12,1.36-4.9.64-.89-.32-1.68-.77-2.38-1.37-.7-.6-1.31-1.29-1.83-2.06-.54-.8-.97-1.64-1.29-2.51-.32-.87-.57-1.77-.77-2.69-.26-1.09-.44-2.16-.54-3.22-.1-1.06-.15-2.13-.15-3.22Z"/>
        <path class="cls-5" d="m421.17,152.77c-.26.37-.48.72-.67,1.05-.19.33-.35.65-.49.97-.52.89-1,1.8-1.46,2.73-.46.93-.92,1.88-1.37,2.86-.37.75-.73,1.5-1.07,2.28-.34.77-.7,1.56-1.07,2.36-.29.72-.85,1.1-1.68,1.16-.37.03-.71-.04-1.01-.21-.3-.17-.57-.41-.79-.73-.29-.46-.5-.97-.64-1.55-.34-1.2-.71-2.39-1.1-3.57-.39-1.17-.71-2.35-.97-3.52-.03-.26-.16-.52-.39-.77,0,.46-.04.89-.13,1.29-.06,1.43-.12,2.88-.19,4.34-.07,1.46-.14,2.91-.19,4.34-.06,1.06-.15,2.12-.28,3.18-.13,1.06-.27,2.13-.41,3.22-.03.34-.06.68-.11,1.01-.04.33-.09.68-.15,1.05-.03.2-.1.39-.21.58-.11.19-.3.31-.56.37-.23.11-.47.12-.71.02-.24-.1-.44-.28-.58-.54-.11-.14-.19-.31-.24-.49-.04-.19-.09-.38-.15-.58-.2-1.23-.37-2.48-.49-3.74-.13-1.26-.18-2.51-.15-3.74.06-2.78.19-5.51.39-8.21.09-.92.16-1.83.21-2.75.06-.92.11-1.85.17-2.79.06-.74.14-1.5.24-2.26.1-.76.25-1.51.45-2.26.06-.23.12-.45.19-.67.07-.21.16-.42.28-.62.54-.86,1.29-1.16,2.23-.9.66.17,1.16.46,1.5.86.34.4.62.89.82,1.46.57,1.55,1.08,3.11,1.53,4.7.44,1.59.91,3.19,1.4,4.79.09.34.19.7.3,1.07.11.37.23.75.34,1.12.2-.06.32-.16.37-.32.04-.16.09-.29.15-.41.66-1.06,1.25-2.15,1.76-3.27.52-1.12,1.09-2.22,1.72-3.31.4-.74.83-1.48,1.29-2.21.46-.73.93-1.45,1.42-2.17.09-.14.18-.31.28-.49.1-.19.18-.37.24-.54.09-.4.29-.73.62-.99.33-.26.68-.4,1.05-.43.4-.03.78.06,1.14.26.36.2.62.49.79.86.14.2.24.44.28.73.04.29.08.56.11.82.06.72.09,1.46.11,2.23.01.77.04,1.55.06,2.32,0,1.86-.04,3.72-.11,5.59-.07,1.86-.18,3.72-.32,5.59-.06.63-.09,1.28-.09,1.95s-.01,1.35-.04,2.04c-.06,1.37-.09,2.76-.11,4.15-.01,1.39-.02,2.77-.02,4.15,0,.63-.26,1.02-.77,1.16-.57.11-.99-.1-1.25-.64-.23-.49-.37-1.02-.43-1.59-.11-.66-.19-1.32-.21-2-.03-.67-.07-1.32-.13-1.95-.09-1.17-.14-2.36-.17-3.57-.03-1.2-.1-2.39-.21-3.57-.14-1.78-.23-3.55-.26-5.33-.03-1.78-.03-3.55,0-5.33v-.21c0-.09-.01-.23-.04-.43Z"/>
        <path class="cls-5" d="m430.02,174.17c0-.6.03-1.22.09-1.85.06-.63.11-1.26.17-1.89,0-.2-.04-.37-.11-.52-.07-.14-.24-.24-.49-.3-.34-.09-.62-.31-.84-.67-.21-.36-.3-.75-.26-1.18s.24-.8.58-1.12c.31-.31.66-.53,1.03-.64.26-.06.44-.17.54-.34.1-.17.16-.36.19-.56.06-.63.12-1.26.19-1.89.07-.63.15-1.25.24-1.85.23-1.55.49-3.09.77-4.64.29-1.55.57-3.09.86-4.64.2-.83.38-1.67.54-2.51.16-.84.38-1.68.67-2.51.11-.26.22-.52.32-.77.1-.26.24-.5.41-.73.52-.86,1.21-1.29,2.08-1.29s1.57.43,2.08,1.29c.31.43.54.88.69,1.35.14.47.26.95.34,1.44.26,1.23.48,2.47.67,3.72.19,1.25.38,2.5.58,3.76.14,1.32.28,2.64.41,3.97.13,1.33.25,2.67.37,4.02.03.14.08.29.15.45.07.16.19.28.37.37.74.66.8,1.3.17,1.93-.29.34-.39.72-.3,1.12.06.77.12,1.55.19,2.32.07.77.14,1.55.19,2.32.06.72.13,1.45.21,2.19.09.75.2,1.49.34,2.23.14.66-.09,1.12-.69,1.37-.49.29-.99.17-1.5-.34-.2-.2-.37-.44-.52-.71-.14-.27-.27-.55-.39-.84-.26-.74-.46-1.5-.6-2.26-.14-.76-.29-1.53-.43-2.3-.09-.57-.18-1.15-.28-1.74-.1-.59-.19-1.17-.28-1.74-.03-.17-.07-.3-.13-.39-.06-.09-.19-.11-.39-.09-.54.11-1.1.24-1.68.37-.57.13-1.13.27-1.68.41-.32.09-.47.29-.47.6-.09,1.06-.19,2.11-.3,3.14-.11,1.03-.23,2.09-.34,3.18-.03.26-.04.52-.04.77v.77c-.14.89-.57,1.45-1.29,1.68-.37.11-.72.11-1.05-.02-.33-.13-.62-.32-.88-.58-.2-.2-.33-.41-.39-.62-.06-.21-.09-.45-.09-.71-.03-.4-.04-.81-.04-1.22v-1.31Zm6.75-21.57c-.17.26-.26.44-.26.56-.52,1.95-.9,3.91-1.16,5.89-.09.86-.18,1.73-.28,2.6-.1.87-.19,1.74-.28,2.6-.03.26-.02.42.02.47.04.06.21.07.49.04.4-.03.8-.07,1.2-.13.4-.06.79-.1,1.16-.13.43,0,.6-.19.52-.56-.09-.57-.16-1.14-.21-1.7-.06-.56-.13-1.11-.21-1.65-.06-.63-.13-1.25-.21-1.85-.09-.6-.14-1.22-.17-1.85-.06-.72-.14-1.43-.24-2.15-.1-.72-.22-1.43-.37-2.15Z"/>
        <path class="cls-5" d="m450.64,159.95c-.06.46-.08.9-.06,1.31.01.42.02.85.02,1.31-.03.97-.04,1.93-.04,2.88s-.03,1.88-.09,2.79c-.06,1.35-.1,2.69-.13,4.02-.03,1.33-.01,2.66.04,3.97v.21c0,.6-.14.92-.43.95-.43.09-.76-.17-.99-.77-.11-.57-.21-1.16-.3-1.76-.09-.6-.17-1.19-.26-1.76-.11-.63-.21-1.25-.3-1.85s-.19-1.22-.3-1.85c-.09-.57-.16-1.15-.21-1.72-.06-.57-.11-1.13-.17-1.68-.17-1.92-.3-3.75-.39-5.5-.11-1.69-.19-3.38-.24-5.07-.04-1.69-.06-3.39-.06-5.11,0-.54.04-1.09.11-1.63.07-.54.18-1.09.32-1.63.06-.14.1-.27.13-.39.03-.11.1-.23.21-.34.26-.46.63-.72,1.12-.77.49-.06.9.11,1.25.52.2.2.39.42.56.67.17.24.31.52.43.84.54,1.32,1.04,2.64,1.48,3.97.44,1.33.87,2.67,1.27,4.02.46,1.49.96,2.95,1.5,4.38.54,1.43,1.12,2.85,1.72,4.25.4.97.83,1.92,1.29,2.84.46.92.96,1.83,1.5,2.75.09.11.16.25.24.41.07.16.21.28.41.37.03-.54.06-1.07.09-1.59.03-.52.04-1.02.04-1.5v-2.51c0-.84-.03-1.68-.09-2.51-.06-1.52-.08-3.04-.06-4.55.01-1.52.02-3.02.02-4.51,0-.89,0-1.75-.02-2.6-.01-.84-.05-1.68-.11-2.51,0-.2-.01-.37-.04-.52-.03-.14-.14-.27-.34-.39-.2-.09-.28-.23-.24-.43.04-.2.14-.36.28-.47.31-.14.64-.19.97-.15.33.04.55.25.67.62.14.26.25.52.32.79.07.27.14.54.19.79.34,1.52.57,3.05.69,4.6.11,1.55.23,3.09.34,4.64.06,1.58.15,3.14.28,4.68s.25,3.12.37,4.73c.03.92.06,1.83.11,2.73.04.9.05,1.81.02,2.73-.03.46-.06.9-.11,1.33s-.14.85-.28,1.25c-.2.75-.63,1.25-1.29,1.5-.66.26-1.33.21-2.02-.13-.29-.17-.54-.38-.77-.62-.23-.24-.46-.51-.69-.8-.63-.72-1.22-1.47-1.76-2.28-.54-.8-1.06-1.62-1.55-2.45-.6-1.17-1.17-2.37-1.72-3.59-.54-1.22-1.06-2.44-1.55-3.67-.2-.52-.39-1.02-.56-1.53-.17-.5-.36-1.01-.56-1.53-.03-.03-.05-.06-.06-.11-.01-.04-.08-.06-.19-.06Z"/>
        <path class="cls-5" d="m470.83,151.23c-.06,2.03-.11,3.98-.17,5.84-.06,1.86-.07,3.69-.04,5.5.06,1.29.09,2.58.11,3.87.01,1.29.05,2.56.11,3.82.03.8.05,1.6.06,2.41.01.8.08,1.59.19,2.36.06.49.14.96.26,1.42.09.32.11.56.06.73-.04.17-.19.33-.45.47-.26.17-.53.23-.82.17-.29-.06-.52-.21-.69-.47-.2-.32-.37-.66-.52-1.03-.14-.37-.24-.74-.3-1.12-.2-1.17-.37-2.36-.49-3.57-.13-1.2-.25-2.39-.37-3.57-.09-1.55-.18-3.09-.28-4.62-.1-1.53-.19-3.07-.28-4.62-.11-1.6-.2-3.2-.26-4.79-.06-1.59.03-3.19.26-4.79.06-.43.14-.85.26-1.27.11-.41.21-.84.3-1.27.09-.32.24-.63.47-.95.14-.2.3-.36.47-.47.17-.11.4-.17.69-.17.26.03.47.13.62.3.16.17.26.37.32.6.17.46.28.91.32,1.35.04.44.06.91.06,1.4.06.46.1.91.13,1.35.03.44.01.81-.04,1.1Z"/>
        <path class="cls-5" d="m476.12,174.17c0-.6.03-1.22.09-1.85.06-.63.11-1.26.17-1.89,0-.2-.04-.37-.11-.52-.07-.14-.24-.24-.49-.3-.34-.09-.62-.31-.84-.67-.21-.36-.3-.75-.26-1.18s.24-.8.58-1.12c.31-.31.66-.53,1.03-.64.26-.06.44-.17.54-.34.1-.17.16-.36.19-.56.06-.63.12-1.26.19-1.89.07-.63.15-1.25.24-1.85.23-1.55.49-3.09.77-4.64.29-1.55.57-3.09.86-4.64.2-.83.38-1.67.54-2.51.16-.84.38-1.68.67-2.51.11-.26.22-.52.32-.77.1-.26.24-.5.41-.73.52-.86,1.21-1.29,2.08-1.29s1.57.43,2.08,1.29c.31.43.54.88.69,1.35.14.47.26.95.34,1.44.26,1.23.48,2.47.67,3.72.19,1.25.38,2.5.58,3.76.14,1.32.28,2.64.41,3.97.13,1.33.25,2.67.37,4.02.03.14.08.29.15.45.07.16.19.28.37.37.74.66.8,1.3.17,1.93-.29.34-.39.72-.3,1.12.06.77.12,1.55.19,2.32.07.77.14,1.55.19,2.32.06.72.13,1.45.21,2.19.09.75.2,1.49.34,2.23.14.66-.09,1.12-.69,1.37-.49.29-.99.17-1.5-.34-.2-.2-.37-.44-.52-.71-.14-.27-.27-.55-.39-.84-.26-.74-.46-1.5-.6-2.26-.14-.76-.29-1.53-.43-2.3-.09-.57-.18-1.15-.28-1.74-.1-.59-.19-1.17-.28-1.74-.03-.17-.07-.3-.13-.39-.06-.09-.19-.11-.39-.09-.54.11-1.1.24-1.68.37-.57.13-1.13.27-1.68.41-.32.09-.47.29-.47.6-.09,1.06-.19,2.11-.3,3.14-.11,1.03-.23,2.09-.34,3.18-.03.26-.04.52-.04.77v.77c-.14.89-.57,1.45-1.29,1.68-.37.11-.72.11-1.05-.02-.33-.13-.62-.32-.88-.58-.2-.2-.33-.41-.39-.62-.06-.21-.09-.45-.09-.71-.03-.4-.04-.81-.04-1.22v-1.31Zm6.75-21.57c-.17.26-.26.44-.26.56-.52,1.95-.9,3.91-1.16,5.89-.09.86-.18,1.73-.28,2.6-.1.87-.19,1.74-.28,2.6-.03.26-.02.42.02.47.04.06.21.07.49.04.4-.03.8-.07,1.2-.13.4-.06.79-.1,1.16-.13.43,0,.6-.19.52-.56-.09-.57-.16-1.14-.21-1.7-.06-.56-.13-1.11-.21-1.65-.06-.63-.13-1.25-.21-1.85-.09-.6-.14-1.22-.17-1.85-.06-.72-.14-1.43-.24-2.15-.1-.72-.22-1.43-.37-2.15Z"/>
      </g>
    </g>
    <rect class="cls-38" x="30" y="154" width="56" height="48"/>
    <g>
      <path class="cls-26" d="m58,163.6h0c10.16,0,18.4,8.24,18.4,18.4h0c0,5.74-4.66,10.4-10.4,10.4h-16c-5.74,0-10.4-4.66-10.4-10.4h0c0-10.16,8.24-18.4,18.4-18.4Z"/>
      <path class="cls-22" d="m58,165.2h0c8.83,0,16,7.17,16,16v.56c0,4.99-4.05,9.04-9.04,9.04h-13.91c-4.99,0-9.04-4.05-9.04-9.04v-.56c0-8.83,7.17-16,16-16Z"/>
      <circle class="cls-30" cx="49.2" cy="183.44" r="2"/>
      <circle class="cls-30" cx="65.2" cy="182.16" r="2"/>
      <path class="cls-2" d="m52.88,184.86s.63,3.16,2.81,1.28c0,0,1.15-2.24,2.92-.34,0,0,2.61,2.29,3.02-1.66"/>
      <ellipse class="cls-26" cx="62" cy="168.4" rx="2.4" ry="1.6"/>
      <ellipse class="cls-26" cx="55.6" cy="170.96" rx="3.2" ry="1.92"/>
      <ellipse class="cls-26" cx="63.6" cy="173.2" rx="4" ry="2.4"/>
    </g>
    <rect class="cls-38" x="86" y="154" width="56" height="48"/>
    <g>
      <path class="cls-26" d="m114,163.6h0c10.16,0,18.4,8.24,18.4,18.4h0c0,5.74-4.66,10.4-10.4,10.4h-16c-5.74,0-10.4-4.66-10.4-10.4h0c0-10.16,8.24-18.4,18.4-18.4Z"/>
      <path class="cls-22" d="m114,165.2h0c8.83,0,16,7.17,16,16v.56c0,4.99-4.05,9.04-9.04,9.04h-13.91c-4.99,0-9.04-4.05-9.04-9.04v-.56c0-8.83,7.17-16,16-16Z"/>
      <circle class="cls-30" cx="105.2" cy="183.44" r="2"/>
      <circle class="cls-30" cx="121.2" cy="182.16" r="2"/>
      <path class="cls-2" d="m108.88,184.86s.63,3.16,2.81,1.28c0,0,1.15-2.24,2.92-.34,0,0,2.61,2.29,3.02-1.66"/>
      <ellipse class="cls-26" cx="118" cy="168.4" rx="2.4" ry="1.6"/>
      <ellipse class="cls-26" cx="111.6" cy="170.96" rx="3.2" ry="1.92"/>
      <ellipse class="cls-26" cx="119.6" cy="173.2" rx="4" ry="2.4"/>
    </g>
    <rect class="cls-38" x="142" y="154" width="56" height="48"/>
    <g>
      <path class="cls-26" d="m170,163.6h0c10.16,0,18.4,8.24,18.4,18.4h0c0,5.74-4.66,10.4-10.4,10.4h-16c-5.74,0-10.4-4.66-10.4-10.4h0c0-10.16,8.24-18.4,18.4-18.4Z"/>
      <path class="cls-22" d="m170,165.2h0c8.83,0,16,7.17,16,16v.56c0,4.99-4.05,9.04-9.04,9.04h-13.91c-4.99,0-9.04-4.05-9.04-9.04v-.56c0-8.83,7.17-16,16-16Z"/>
      <circle class="cls-30" cx="161.2" cy="183.44" r="2"/>
      <circle class="cls-30" cx="177.2" cy="182.16" r="2"/>
      <path class="cls-2" d="m164.88,184.86s.63,3.16,2.81,1.28c0,0,1.15-2.24,2.92-.34,0,0,2.61,2.29,3.02-1.66"/>
      <ellipse class="cls-26" cx="174" cy="168.4" rx="2.4" ry="1.6"/>
      <ellipse class="cls-26" cx="167.6" cy="170.96" rx="3.2" ry="1.92"/>
      <ellipse class="cls-26" cx="175.6" cy="173.2" rx="4" ry="2.4"/>
    </g>
    <text class="cls-6" transform="translate(198 185.81)"><tspan class="cls-15" x="0" y="0">x</tspan><tspan class="cls-15" x="8.64" y="6"> </tspan><tspan class="cls-10" x="14.04" y="3">-5</tspan></text>
    <rect class="cls-38" x="30" y="106" width="56" height="48"/>
    <g>
      <path class="cls-23" d="m57.51,134.17s18.91,12.3,19.96-14.39c0,0-7.16,7.57-19.96,4.68v9.71Z"/>
      <path class="cls-23" d="m58.49,134.17s-18.91,12.3-19.96-14.39c0,0,7.16,7.57,19.96,4.68v9.71Z"/>
      <path class="cls-43" d="m38.53,119.77s8.31,6.24,6.36,14.39c0,0,6-4.07,8.41-8.98,0,0-7.64-6.07-14.77-5.41Z"/>
      <ellipse class="cls-43" cx="57.51" cy="133.89" rx="13.6" ry="9.71"/>
      <path class="cls-43" d="m77.47,119.77s-8.31,6.24-6.36,14.39c0,0-6-4.07-8.41-8.98,0,0,7.64-6.07,14.77-5.41Z"/>
      <circle class="cls-42" cx="50.71" cy="135.83" r="1.55"/>
      <circle class="cls-42" cx="64.31" cy="135.83" r="1.55"/>
      <path class="cls-1" d="m55.97,138.9l-2.51.95.48-1.69s3.74,2.15,7.14,0l.28,1.73-2.49-.88"/>
      <path class="cls-42" d="m54.35,124.57l-1.7-3.26,3.14,1.03.59-5.94,2.9,5.35,1.62-2.92.56,3.51,2.85-3.77-2.35,6.22s-3.86,7.5-7.61-.22Z"/>
    </g>
    <rect class="cls-38" x="86" y="106" width="56" height="48"/>
    <g>
      <path class="cls-23" d="m113.51,134.17s18.91,12.3,19.96-14.39c0,0-7.16,7.57-19.96,4.68v9.71Z"/>
      <path class="cls-23" d="m114.49,134.17s-18.91,12.3-19.96-14.39c0,0,7.16,7.57,19.96,4.68v9.71Z"/>
      <path class="cls-43" d="m94.53,119.77s8.31,6.24,6.36,14.39c0,0,6-4.07,8.41-8.98,0,0-7.64-6.07-14.77-5.41Z"/>
      <ellipse class="cls-43" cx="113.51" cy="133.89" rx="13.6" ry="9.71"/>
      <path class="cls-43" d="m133.47,119.77s-8.31,6.24-6.36,14.39c0,0-6-4.07-8.41-8.98,0,0,7.64-6.07,14.77-5.41Z"/>
      <circle class="cls-42" cx="106.71" cy="135.83" r="1.55"/>
      <circle class="cls-42" cx="120.31" cy="135.83" r="1.55"/>
      <path class="cls-1" d="m111.97,138.9l-2.51.95.48-1.69s3.74,2.15,7.14,0l.28,1.73-2.49-.88"/>
      <path class="cls-42" d="m110.35,124.57l-1.7-3.26,3.14,1.03.59-5.94,2.9,5.35,1.62-2.92.56,3.51,2.85-3.77-2.35,6.22s-3.86,7.5-7.61-.22Z"/>
    </g>
    <rect class="cls-38" x="142" y="106" width="56" height="48"/>
    <g>
      <path class="cls-23" d="m169.51,134.17s18.91,12.3,19.96-14.39c0,0-7.16,7.57-19.96,4.68v9.71Z"/>
      <path class="cls-23" d="m170.49,134.17s-18.91,12.3-19.96-14.39c0,0,7.16,7.57,19.96,4.68v9.71Z"/>
      <path class="cls-43" d="m150.53,119.77s8.31,6.24,6.36,14.39c0,0,6-4.07,8.41-8.98,0,0-7.64-6.07-14.77-5.41Z"/>
      <ellipse class="cls-43" cx="169.51" cy="133.89" rx="13.6" ry="9.71"/>
      <path class="cls-43" d="m189.47,119.77s-8.31,6.24-6.36,14.39c0,0-6-4.07-8.41-8.98,0,0,7.64-6.07,14.77-5.41Z"/>
      <circle class="cls-42" cx="162.71" cy="135.83" r="1.55"/>
      <circle class="cls-42" cx="176.31" cy="135.83" r="1.55"/>
      <path class="cls-1" d="m167.97,138.9l-2.51.95.48-1.69s3.74,2.15,7.14,0l.28,1.73-2.49-.88"/>
      <path class="cls-42" d="m166.35,124.57l-1.7-3.26,3.14,1.03.59-5.94,2.9,5.35,1.62-2.92.56,3.51,2.85-3.77-2.35,6.22s-3.86,7.5-7.61-.22Z"/>
    </g>
    <text class="cls-6" transform="translate(198 137.81)"><tspan class="cls-15" x="0" y="0">x</tspan><tspan class="cls-15" x="8.64" y="6"> </tspan><tspan class="cls-10" x="14.04" y="3">-10</tspan></text>
    <rect class="cls-38" x="30" y="58" width="56" height="48"/>
    <g>
      <path class="cls-50" d="m72.8,84.38c0,10.15-28,10.15-28,0s3.74-18.38,14-18.38,14,8.23,14,18.38Z"/>
      <path class="cls-50" d="m58.8,80h-7.84c-2.77,0-4.71,2.76-3.75,5.35.78,2.11,1.58,4.72,2.08,7.63s2.99,4.97,5.9,4.99l3.61.03,3.61-.03c2.91-.02,5.41-2.12,5.9-4.99s1.3-5.52,2.08-7.63c.96-2.6-.98-5.35-3.75-5.35h-7.84Z"/>
      <circle class="cls-28" cx="52.8" cy="84" r="3"/>
      <circle class="cls-28" cx="64.8" cy="84" r="3"/>
      <path class="cls-28" d="m58.46,85.96l-1.28,2.05c-.17.27.02.61.34.61h2.56c.31,0,.5-.34.34-.61l-1.28-2.05c-.16-.25-.52-.25-.68,0Z"/>
      <line class="cls-4" x1="51.73" y1="92.8" x2="65.87" y2="92.8"/>
      <polyline class="cls-4" points="48.8 89.6 50.5 90.38 51.73 92.78"/>
      <polyline class="cls-4" points="68.8 89.6 67.1 90.38 65.87 92.78"/>
      <line class="cls-4" x1="58.8" y1="91.6" x2="58.8" y2="94"/>
      <line class="cls-4" x1="62.8" y1="91.6" x2="62.8" y2="94"/>
      <line class="cls-4" x1="54.8" y1="91.6" x2="54.8" y2="94"/>
    </g>
    <rect class="cls-38" x="86" y="58" width="56" height="48"/>
    <g>
      <path class="cls-50" d="m128.8,84.38c0,10.15-28,10.15-28,0s3.74-18.38,14-18.38,14,8.23,14,18.38Z"/>
      <path class="cls-50" d="m114.8,80h-7.84c-2.77,0-4.71,2.76-3.75,5.35.78,2.11,1.58,4.72,2.08,7.63s2.99,4.97,5.9,4.99l3.61.03,3.61-.03c2.91-.02,5.41-2.12,5.9-4.99s1.3-5.52,2.08-7.63c.96-2.6-.98-5.35-3.75-5.35h-7.84Z"/>
      <circle class="cls-28" cx="108.8" cy="84" r="3"/>
      <circle class="cls-28" cx="120.8" cy="84" r="3"/>
      <path class="cls-28" d="m114.46,85.96l-1.28,2.05c-.17.27.02.61.34.61h2.56c.31,0,.5-.34.34-.61l-1.28-2.05c-.16-.25-.52-.25-.68,0Z"/>
      <line class="cls-4" x1="107.73" y1="92.8" x2="121.87" y2="92.8"/>
      <polyline class="cls-4" points="104.8 89.6 106.5 90.38 107.73 92.78"/>
      <polyline class="cls-4" points="124.8 89.6 123.1 90.38 121.87 92.78"/>
      <line class="cls-4" x1="114.8" y1="91.6" x2="114.8" y2="94"/>
      <line class="cls-4" x1="118.8" y1="91.6" x2="118.8" y2="94"/>
      <line class="cls-4" x1="110.8" y1="91.6" x2="110.8" y2="94"/>
    </g>
    <rect class="cls-38" x="142" y="58" width="56" height="48"/>
    <g>
      <path class="cls-50" d="m184.8,84.38c0,10.15-28,10.15-28,0s3.74-18.38,14-18.38,14,8.23,14,18.38Z"/>
      <path class="cls-50" d="m170.8,80h-7.84c-2.77,0-4.71,2.76-3.75,5.35.78,2.11,1.58,4.72,2.08,7.63s2.99,4.97,5.9,4.99l3.61.03,3.61-.03c2.91-.02,5.41-2.12,5.9-4.99s1.3-5.52,2.08-7.63c.96-2.6-.98-5.35-3.75-5.35h-7.84Z"/>
      <circle class="cls-28" cx="164.8" cy="84" r="3"/>
      <circle class="cls-28" cx="176.8" cy="84" r="3"/>
      <path class="cls-28" d="m170.46,85.96l-1.28,2.05c-.17.27.02.61.34.61h2.56c.31,0,.5-.34.34-.61l-1.28-2.05c-.16-.25-.52-.25-.68,0Z"/>
      <line class="cls-4" x1="163.73" y1="92.8" x2="177.87" y2="92.8"/>
      <polyline class="cls-4" points="160.8 89.6 162.5 90.38 163.73 92.78"/>
      <polyline class="cls-4" points="180.8 89.6 179.1 90.38 177.87 92.78"/>
      <line class="cls-4" x1="170.8" y1="91.6" x2="170.8" y2="94"/>
      <line class="cls-4" x1="174.8" y1="91.6" x2="174.8" y2="94"/>
      <line class="cls-4" x1="166.8" y1="91.6" x2="166.8" y2="94"/>
    </g>
    <text class="cls-6" transform="translate(198 89.81)"><tspan class="cls-15" x="0" y="0">x</tspan><tspan class="cls-15" x="8.64" y="6"> </tspan><tspan class="cls-10" x="14.04" y="3">-</tspan><tspan class="cls-8" x="25.23" y="3">2</tspan><tspan class="cls-10" x="39.02" y="3">5</tspan></text>
    <rect class="cls-38" x="30" y="10" width="56" height="48"/>
    <g>
      <path class="cls-29" d="m61.48,42.11s2.75,1.05,2.67,3.88c0,0-3.64,1.05-4.04,2.67,0,0-1.62-4.29,1.37-6.55Z"/>
      <path class="cls-29" d="m66.31,21.27s1.96-1.02,4.06-.61c0,0,1.92-.46,3.38-1.76,0,0,1.89,3.96-5.51,3.88,0,0-2.83,1.26-1.92-1.51Z"/>
      <path class="cls-21" d="m52.74,26.44s-.23-5.11,3.65-7.62c0,0,2.67-.49,2.75-2.26,0,0,1.54,1.05,1.29,2.91,0,0,3.68-1.62,5.88-.65,0,0,1.31.49,2.97-.57,0,0,.77,2.75-1.82,4.12,0,0,5.66,5.09,8.01,4.53,0,0-1.05,2.59-5.26,2.83,0,0,.16,3.88,2.02,4.69,0,0-2.3,2.65-5.92,1.53,0,0,.19,6.48,1.92,8.83,0,0-6.92,1.29-7.73-1.78,0,0,8.17-13.85,5.42-16.95,0,0-10.03,3.41-13.19.39Z"/>
      <path class="cls-29" d="m69.11,28.34s1.51.43,2.4,2.29c0,0-2.44.59-2.92,3.04,0,0-1.07-4.79.52-5.33Z"/>
      <path class="cls-29" d="m67.97,35.2s1.69,2.06.27,3.84c0,0-1.35-.99-4.42.59,0,0,.85-3.59,4.15-4.44Z"/>
      <path class="cls-24" d="m47.52,51.44h13.22s-1.46-9.87,6.44-14.76c0,0,8.18-12.69-7.63-14.3,0,0-7.52,6.93-17.67,5.42,0,0-2.54,7.28,2.31,9.45,0,0,4.43,1.21,12.32-3.02,0,0-8.66,7.83-8.98,17.21Z"/>
      <path class="cls-21" d="m52.74,26.44s1.43,1.92,9.17-.99c0,0,3.73,2.19,6.06,2.89,0,0-2.56,3.64-1.65,7.61,0,0-7.95,3.61-4.9,8.28,0,0,1.73-4.32,5.76-7.55,0,0,5.55-6.7-.11-12.44,0,0-2.7-4.37-8.33-2.51,0,0-5.03,2.95-5.99,4.71Z"/>
      <path class="cls-29" d="m59.73,24.21s4.09-4.02,11.86-1.43c0,0,3.23.4,4.69-2.02,0,0,1.46,5.66-5.66,5.09,0,0-4.3-.97-6.52,1.87,0,0-4.53,1.25-4.37-3.52Z"/>
      <path class="cls-29" d="m52.81,31.22s1.78-.68,3.23-1.63c0,0,1.04,1.13-.81,1.46,0,0-1.61.74-2.43.17Z"/>
      <path class="cls-29" d="m43.2,28.93l.89,2.08s-2.02-.54-.89-2.08Z"/>
      <path class="cls-21" d="m52.81,31.22s2.02-3.22,4.85-2.66l-1.62,1.03s-1.54,1.29-3.23,1.63Z"/>
      <path class="cls-29" d="m56.5,34.23s3.54-.85.5,3.52c0,0-5.55,7.25-5.14,13.69h-4.34s-1.57-7.23,8.98-17.21Z"/>
    </g>
    <rect class="cls-38" x="86" y="10" width="56" height="48"/>
    <g>
      <path class="cls-29" d="m117.48,42.11s2.75,1.05,2.67,3.88c0,0-3.64,1.05-4.04,2.67,0,0-1.62-4.29,1.37-6.55Z"/>
      <path class="cls-29" d="m122.31,21.27s1.96-1.02,4.06-.61c0,0,1.92-.46,3.38-1.76,0,0,1.89,3.96-5.51,3.88,0,0-2.83,1.26-1.92-1.51Z"/>
      <path class="cls-21" d="m108.74,26.44s-.23-5.11,3.65-7.62c0,0,2.67-.49,2.75-2.26,0,0,1.54,1.05,1.29,2.91,0,0,3.68-1.62,5.88-.65,0,0,1.31.49,2.97-.57,0,0,.77,2.75-1.82,4.12,0,0,5.66,5.09,8.01,4.53,0,0-1.05,2.59-5.26,2.83,0,0,.16,3.88,2.02,4.69,0,0-2.3,2.65-5.92,1.53,0,0,.19,6.48,1.92,8.83,0,0-6.92,1.29-7.73-1.78,0,0,8.17-13.85,5.42-16.95,0,0-10.03,3.41-13.19.39Z"/>
      <path class="cls-29" d="m125.11,28.34s1.51.43,2.4,2.29c0,0-2.44.59-2.92,3.04,0,0-1.07-4.79.52-5.33Z"/>
      <path class="cls-29" d="m123.97,35.2s1.69,2.06.27,3.84c0,0-1.35-.99-4.42.59,0,0,.85-3.59,4.15-4.44Z"/>
      <path class="cls-24" d="m103.52,51.44h13.22s-1.46-9.87,6.44-14.76c0,0,8.18-12.69-7.63-14.3,0,0-7.52,6.93-17.67,5.42,0,0-2.54,7.28,2.31,9.45,0,0,4.43,1.21,12.32-3.02,0,0-8.66,7.83-8.98,17.21Z"/>
      <path class="cls-21" d="m108.74,26.44s1.43,1.92,9.17-.99c0,0,3.73,2.19,6.06,2.89,0,0-2.56,3.64-1.65,7.61,0,0-7.95,3.61-4.9,8.28,0,0,1.73-4.32,5.76-7.55,0,0,5.55-6.7-.11-12.44,0,0-2.7-4.37-8.33-2.51,0,0-5.03,2.95-5.99,4.71Z"/>
      <path class="cls-29" d="m115.73,24.21s4.09-4.02,11.86-1.43c0,0,3.23.4,4.69-2.02,0,0,1.46,5.66-5.66,5.09,0,0-4.3-.97-6.52,1.87,0,0-4.53,1.25-4.37-3.52Z"/>
      <path class="cls-29" d="m108.81,31.22s1.78-.68,3.23-1.63c0,0,1.04,1.13-.81,1.46,0,0-1.61.74-2.43.17Z"/>
      <path class="cls-29" d="m99.2,28.93l.89,2.08s-2.02-.54-.89-2.08Z"/>
      <path class="cls-21" d="m108.81,31.22s2.02-3.22,4.85-2.66l-1.62,1.03s-1.54,1.29-3.23,1.63Z"/>
      <path class="cls-29" d="m112.5,34.23s3.54-.85.5,3.52c0,0-5.55,7.25-5.14,13.69h-4.34s-1.57-7.23,8.98-17.21Z"/>
    </g>
    <rect class="cls-38" x="142" y="10" width="56" height="48"/>
    <g>
      <path class="cls-29" d="m173.48,42.11s2.75,1.05,2.67,3.88c0,0-3.64,1.05-4.04,2.67,0,0-1.62-4.29,1.37-6.55Z"/>
      <path class="cls-29" d="m178.31,21.27s1.96-1.02,4.06-.61c0,0,1.92-.46,3.38-1.76,0,0,1.89,3.96-5.51,3.88,0,0-2.83,1.26-1.92-1.51Z"/>
      <path class="cls-21" d="m164.74,26.44s-.23-5.11,3.65-7.62c0,0,2.67-.49,2.75-2.26,0,0,1.54,1.05,1.29,2.91,0,0,3.68-1.62,5.88-.65,0,0,1.31.49,2.97-.57,0,0,.77,2.75-1.82,4.12,0,0,5.66,5.09,8.01,4.53,0,0-1.05,2.59-5.26,2.83,0,0,.16,3.88,2.02,4.69,0,0-2.3,2.65-5.92,1.53,0,0,.19,6.48,1.92,8.83,0,0-6.92,1.29-7.73-1.78,0,0,8.17-13.85,5.42-16.95,0,0-10.03,3.41-13.19.39Z"/>
      <path class="cls-29" d="m181.11,28.34s1.51.43,2.4,2.29c0,0-2.44.59-2.92,3.04,0,0-1.07-4.79.52-5.33Z"/>
      <path class="cls-29" d="m179.97,35.2s1.69,2.06.27,3.84c0,0-1.35-.99-4.42.59,0,0,.85-3.59,4.15-4.44Z"/>
      <path class="cls-24" d="m159.52,51.44h13.22s-1.46-9.87,6.44-14.76c0,0,8.18-12.69-7.63-14.3,0,0-7.52,6.93-17.67,5.42,0,0-2.54,7.28,2.31,9.45,0,0,4.43,1.21,12.32-3.02,0,0-8.66,7.83-8.98,17.21Z"/>
      <path class="cls-21" d="m164.74,26.44s1.43,1.92,9.17-.99c0,0,3.73,2.19,6.06,2.89,0,0-2.56,3.64-1.65,7.61,0,0-7.95,3.61-4.9,8.28,0,0,1.73-4.32,5.76-7.55,0,0,5.55-6.7-.11-12.44,0,0-2.7-4.37-8.33-2.51,0,0-5.03,2.95-5.99,4.71Z"/>
      <path class="cls-29" d="m171.73,24.21s4.09-4.02,11.86-1.43c0,0,3.23.4,4.69-2.02,0,0,1.46,5.66-5.66,5.09,0,0-4.3-.97-6.52,1.87,0,0-4.53,1.25-4.37-3.52Z"/>
      <path class="cls-29" d="m164.81,31.22s1.78-.68,3.23-1.63c0,0,1.04,1.13-.81,1.46,0,0-1.61.74-2.43.17Z"/>
      <path class="cls-29" d="m155.2,28.93l.89,2.08s-2.02-.54-.89-2.08Z"/>
      <path class="cls-21" d="m164.81,31.22s2.02-3.22,4.85-2.66l-1.62,1.03s-1.54,1.29-3.23,1.63Z"/>
      <path class="cls-29" d="m168.5,34.23s3.54-.85.5,3.52c0,0-5.55,7.25-5.14,13.69h-4.34s-1.57-7.23,8.98-17.21Z"/>
    </g>
    <text class="cls-6" transform="translate(198 41.81)"><tspan class="cls-15" x="0" y="0">x</tspan><tspan class="cls-15" x="8.64" y="6"> </tspan><tspan class="cls-10" x="14.04" y="3">-</tspan><tspan class="cls-9" x="25.23" y="3">5</tspan><tspan class="cls-10" x="36.68" y="3">0</tspan></text>
    <rect class="cls-38" x="86" y="250" width="56" height="48"/>
    <g>
      <path class="cls-50" d="m128.8,276.38c0,10.15-28,10.15-28,0s3.74-18.38,14-18.38,14,8.23,14,18.38Z"/>
      <path class="cls-50" d="m114.8,272h-7.84c-2.77,0-4.71,2.76-3.75,5.35.78,2.11,1.58,4.72,2.08,7.63s2.99,4.97,5.9,4.99l3.61.03,3.61-.03c2.91-.02,5.41-2.12,5.9-4.99s1.3-5.52,2.08-7.63c.96-2.6-.98-5.35-3.75-5.35h-7.84Z"/>
      <circle class="cls-28" cx="108.8" cy="276" r="3"/>
      <circle class="cls-28" cx="120.8" cy="276" r="3"/>
      <path class="cls-28" d="m114.46,277.96l-1.28,2.05c-.17.27.02.61.34.61h2.56c.31,0,.5-.34.34-.61l-1.28-2.05c-.16-.25-.52-.25-.68,0Z"/>
      <line class="cls-4" x1="107.73" y1="284.8" x2="121.87" y2="284.8"/>
      <polyline class="cls-4" points="104.8 281.6 106.5 282.38 107.73 284.78"/>
      <polyline class="cls-4" points="124.8 281.6 123.1 282.38 121.87 284.78"/>
      <line class="cls-4" x1="114.8" y1="283.6" x2="114.8" y2="286"/>
      <line class="cls-4" x1="118.8" y1="283.6" x2="118.8" y2="286"/>
      <line class="cls-4" x1="110.8" y1="283.6" x2="110.8" y2="286"/>
    </g>
    <rect class="cls-38" x="142" y="250" width="56" height="48"/>
    <g>
      <path class="cls-50" d="m184.8,276.38c0,10.15-28,10.15-28,0s3.74-18.38,14-18.38,14,8.23,14,18.38Z"/>
      <path class="cls-50" d="m170.8,272h-7.84c-2.77,0-4.71,2.76-3.75,5.35.78,2.11,1.58,4.72,2.08,7.63s2.99,4.97,5.9,4.99l3.61.03,3.61-.03c2.91-.02,5.41-2.12,5.9-4.99s1.3-5.52,2.08-7.63c.96-2.6-.98-5.35-3.75-5.35h-7.84Z"/>
      <circle class="cls-28" cx="164.8" cy="276" r="3"/>
      <circle class="cls-28" cx="176.8" cy="276" r="3"/>
      <path class="cls-28" d="m170.46,277.96l-1.28,2.05c-.17.27.02.61.34.61h2.56c.31,0,.5-.34.34-.61l-1.28-2.05c-.16-.25-.52-.25-.68,0Z"/>
      <line class="cls-4" x1="163.73" y1="284.8" x2="177.87" y2="284.8"/>
      <polyline class="cls-4" points="160.8 281.6 162.5 282.38 163.73 284.78"/>
      <polyline class="cls-4" points="180.8 281.6 179.1 282.38 177.87 284.78"/>
      <line class="cls-4" x1="170.8" y1="283.6" x2="170.8" y2="286"/>
      <line class="cls-4" x1="174.8" y1="283.6" x2="174.8" y2="286"/>
      <line class="cls-4" x1="166.8" y1="283.6" x2="166.8" y2="286"/>
    </g>
    <text class="cls-6" transform="translate(198 281.81)"><tspan class="cls-15" x="0" y="0">x</tspan><tspan class="cls-15" x="8.64" y="6"> </tspan><tspan class="cls-10" x="14.04" y="3">-3</tspan></text>
    <rect class="cls-38" x="86" y="202" width="56" height="48"/>
    <g>
      <path class="cls-29" d="m117.48,234.11s2.75,1.05,2.67,3.88c0,0-3.64,1.05-4.04,2.67,0,0-1.62-4.29,1.37-6.55Z"/>
      <path class="cls-29" d="m122.31,213.27s1.96-1.02,4.06-.61c0,0,1.92-.46,3.38-1.76,0,0,1.89,3.96-5.51,3.88,0,0-2.83,1.26-1.92-1.51Z"/>
      <path class="cls-21" d="m108.74,218.44s-.23-5.11,3.65-7.62c0,0,2.67-.49,2.75-2.26,0,0,1.54,1.05,1.29,2.91,0,0,3.68-1.62,5.88-.65,0,0,1.31.49,2.97-.57,0,0,.77,2.75-1.82,4.12,0,0,5.66,5.09,8.01,4.53,0,0-1.05,2.59-5.26,2.83,0,0,.16,3.88,2.02,4.69,0,0-2.3,2.65-5.92,1.53,0,0,.19,6.48,1.92,8.83,0,0-6.92,1.29-7.73-1.78,0,0,8.17-13.85,5.42-16.95,0,0-10.03,3.41-13.19.39Z"/>
      <path class="cls-29" d="m125.11,220.34s1.51.43,2.4,2.29c0,0-2.44.59-2.92,3.04,0,0-1.07-4.79.52-5.33Z"/>
      <path class="cls-29" d="m123.97,227.2s1.69,2.06.27,3.84c0,0-1.35-.99-4.42.59,0,0,.85-3.59,4.15-4.44Z"/>
      <path class="cls-24" d="m103.52,243.44h13.22s-1.46-9.87,6.44-14.76c0,0,8.18-12.69-7.63-14.3,0,0-7.52,6.93-17.67,5.42,0,0-2.54,7.28,2.31,9.45,0,0,4.43,1.21,12.32-3.02,0,0-8.66,7.83-8.98,17.21Z"/>
      <path class="cls-21" d="m108.74,218.44s1.43,1.92,9.17-.99c0,0,3.73,2.19,6.06,2.89,0,0-2.56,3.64-1.65,7.61,0,0-7.95,3.61-4.9,8.28,0,0,1.73-4.32,5.76-7.55,0,0,5.55-6.7-.11-12.44,0,0-2.7-4.37-8.33-2.51,0,0-5.03,2.95-5.99,4.71Z"/>
      <path class="cls-29" d="m115.73,216.21s4.09-4.02,11.86-1.43c0,0,3.23.4,4.69-2.02,0,0,1.46,5.66-5.66,5.09,0,0-4.3-.97-6.52,1.87,0,0-4.53,1.25-4.37-3.52Z"/>
      <path class="cls-29" d="m108.81,223.22s1.78-.68,3.23-1.63c0,0,1.04,1.13-.81,1.46,0,0-1.61.74-2.43.17Z"/>
      <path class="cls-29" d="m99.2,220.93l.89,2.08s-2.02-.54-.89-2.08Z"/>
      <path class="cls-21" d="m108.81,223.22s2.02-3.22,4.85-2.66l-1.62,1.03s-1.54,1.29-3.23,1.63Z"/>
      <path class="cls-29" d="m112.5,226.23s3.54-.85.5,3.52c0,0-5.55,7.25-5.14,13.69h-4.34s-1.57-7.23,8.98-17.21Z"/>
    </g>
    <rect class="cls-38" x="142" y="202" width="56" height="48"/>
    <g>
      <path class="cls-29" d="m173.48,234.11s2.75,1.05,2.67,3.88c0,0-3.64,1.05-4.04,2.67,0,0-1.62-4.29,1.37-6.55Z"/>
      <path class="cls-29" d="m178.31,213.27s1.96-1.02,4.06-.61c0,0,1.92-.46,3.38-1.76,0,0,1.89,3.96-5.51,3.88,0,0-2.83,1.26-1.92-1.51Z"/>
      <path class="cls-21" d="m164.74,218.44s-.23-5.11,3.65-7.62c0,0,2.67-.49,2.75-2.26,0,0,1.54,1.05,1.29,2.91,0,0,3.68-1.62,5.88-.65,0,0,1.31.49,2.97-.57,0,0,.77,2.75-1.82,4.12,0,0,5.66,5.09,8.01,4.53,0,0-1.05,2.59-5.26,2.83,0,0,.16,3.88,2.02,4.69,0,0-2.3,2.65-5.92,1.53,0,0,.19,6.48,1.92,8.83,0,0-6.92,1.29-7.73-1.78,0,0,8.17-13.85,5.42-16.95,0,0-10.03,3.41-13.19.39Z"/>
      <path class="cls-29" d="m181.11,220.34s1.51.43,2.4,2.29c0,0-2.44.59-2.92,3.04,0,0-1.07-4.79.52-5.33Z"/>
      <path class="cls-29" d="m179.97,227.2s1.69,2.06.27,3.84c0,0-1.35-.99-4.42.59,0,0,.85-3.59,4.15-4.44Z"/>
      <path class="cls-24" d="m159.52,243.44h13.22s-1.46-9.87,6.44-14.76c0,0,8.18-12.69-7.63-14.3,0,0-7.52,6.93-17.67,5.42,0,0-2.54,7.28,2.31,9.45,0,0,4.43,1.21,12.32-3.02,0,0-8.66,7.83-8.98,17.21Z"/>
      <path class="cls-21" d="m164.74,218.44s1.43,1.92,9.17-.99c0,0,3.73,2.19,6.06,2.89,0,0-2.56,3.64-1.65,7.61,0,0-7.95,3.61-4.9,8.28,0,0,1.73-4.32,5.76-7.55,0,0,5.55-6.7-.11-12.44,0,0-2.7-4.37-8.33-2.51,0,0-5.03,2.95-5.99,4.71Z"/>
      <path class="cls-29" d="m171.73,216.21s4.09-4.02,11.86-1.43c0,0,3.23.4,4.69-2.02,0,0,1.46,5.66-5.66,5.09,0,0-4.3-.97-6.52,1.87,0,0-4.53,1.25-4.37-3.52Z"/>
      <path class="cls-29" d="m164.81,223.22s1.78-.68,3.23-1.63c0,0,1.04,1.13-.81,1.46,0,0-1.61.74-2.43.17Z"/>
      <path class="cls-29" d="m155.2,220.93l.89,2.08s-2.02-.54-.89-2.08Z"/>
      <path class="cls-21" d="m164.81,223.22s2.02-3.22,4.85-2.66l-1.62,1.03s-1.54,1.29-3.23,1.63Z"/>
      <path class="cls-29" d="m168.5,226.23s3.54-.85.5,3.52c0,0-5.55,7.25-5.14,13.69h-4.34s-1.57-7.23,8.98-17.21Z"/>
    </g>
    <text class="cls-6" transform="translate(198 233.81)"><tspan class="cls-15" x="0" y="0">x</tspan><tspan class="cls-15" x="8.64" y="6"> </tspan><tspan class="cls-10" x="14.04" y="3">-4</tspan></text>
    <rect class="cls-38" x="142" y="346" width="56" height="48"/>
    <g>
      <path class="cls-50" d="m184.8,372.38c0,10.15-28,10.15-28,0s3.74-18.38,14-18.38,14,8.23,14,18.38Z"/>
      <path class="cls-50" d="m170.8,368h-7.84c-2.77,0-4.71,2.76-3.75,5.35.78,2.11,1.58,4.72,2.08,7.63s2.99,4.97,5.9,4.99l3.61.03,3.61-.03c2.91-.02,5.41-2.12,5.9-4.99s1.3-5.52,2.08-7.63c.96-2.6-.98-5.35-3.75-5.35h-7.84Z"/>
      <circle class="cls-28" cx="164.8" cy="372" r="3"/>
      <circle class="cls-28" cx="176.8" cy="372" r="3"/>
      <path class="cls-28" d="m170.46,373.96l-1.28,2.05c-.17.27.02.61.34.61h2.56c.31,0,.5-.34.34-.61l-1.28-2.05c-.16-.25-.52-.25-.68,0Z"/>
      <line class="cls-4" x1="163.73" y1="380.8" x2="177.87" y2="380.8"/>
      <polyline class="cls-4" points="160.8 377.6 162.5 378.38 163.73 380.78"/>
      <polyline class="cls-4" points="180.8 377.6 179.1 378.38 177.87 380.78"/>
      <line class="cls-4" x1="170.8" y1="379.6" x2="170.8" y2="382"/>
      <line class="cls-4" x1="174.8" y1="379.6" x2="174.8" y2="382"/>
      <line class="cls-4" x1="166.8" y1="379.6" x2="166.8" y2="382"/>
    </g>
    <text class="cls-6" transform="translate(198 377.81)"><tspan class="cls-15" x="0" y="0">x</tspan><tspan class="cls-15" x="8.64" y="6"> </tspan><tspan class="cls-10" x="14.04" y="3">-1</tspan></text>
    <rect class="cls-38" x="142" y="298" width="56" height="48"/>
    <g>
      <path class="cls-29" d="m173.48,330.11s2.75,1.05,2.67,3.88c0,0-3.64,1.05-4.04,2.67,0,0-1.62-4.29,1.37-6.55Z"/>
      <path class="cls-29" d="m178.31,309.27s1.96-1.02,4.06-.61c0,0,1.92-.46,3.38-1.76,0,0,1.89,3.96-5.51,3.88,0,0-2.83,1.26-1.92-1.51Z"/>
      <path class="cls-21" d="m164.74,314.44s-.23-5.11,3.65-7.62c0,0,2.67-.49,2.75-2.26,0,0,1.54,1.05,1.29,2.91,0,0,3.68-1.62,5.88-.65,0,0,1.31.49,2.97-.57,0,0,.77,2.75-1.82,4.12,0,0,5.66,5.09,8.01,4.53,0,0-1.05,2.59-5.26,2.83,0,0,.16,3.88,2.02,4.69,0,0-2.3,2.65-5.92,1.53,0,0,.19,6.48,1.92,8.83,0,0-6.92,1.29-7.73-1.78,0,0,8.17-13.85,5.42-16.95,0,0-10.03,3.41-13.19.39Z"/>
      <path class="cls-29" d="m181.11,316.34s1.51.43,2.4,2.29c0,0-2.44.59-2.92,3.04,0,0-1.07-4.79.52-5.33Z"/>
      <path class="cls-29" d="m179.97,323.2s1.69,2.06.27,3.84c0,0-1.35-.99-4.42.59,0,0,.85-3.59,4.15-4.44Z"/>
      <path class="cls-24" d="m159.52,339.44h13.22s-1.46-9.87,6.44-14.76c0,0,8.18-12.69-7.63-14.3,0,0-7.52,6.93-17.67,5.42,0,0-2.54,7.28,2.31,9.45,0,0,4.43,1.21,12.32-3.02,0,0-8.66,7.83-8.98,17.21Z"/>
      <path class="cls-21" d="m164.74,314.44s1.43,1.92,9.17-.99c0,0,3.73,2.19,6.06,2.89,0,0-2.56,3.64-1.65,7.61,0,0-7.95,3.61-4.9,8.28,0,0,1.73-4.32,5.76-7.55,0,0,5.55-6.7-.11-12.44,0,0-2.7-4.37-8.33-2.51,0,0-5.03,2.95-5.99,4.71Z"/>
      <path class="cls-29" d="m171.73,312.21s4.09-4.02,11.86-1.43c0,0,3.23.4,4.69-2.02,0,0,1.46,5.66-5.66,5.09,0,0-4.3-.97-6.52,1.87,0,0-4.53,1.25-4.37-3.52Z"/>
      <path class="cls-29" d="m164.81,319.22s1.78-.68,3.23-1.63c0,0,1.04,1.13-.81,1.46,0,0-1.61.74-2.43.17Z"/>
      <path class="cls-29" d="m155.2,316.93l.89,2.08s-2.02-.54-.89-2.08Z"/>
      <path class="cls-21" d="m164.81,319.22s2.02-3.22,4.85-2.66l-1.62,1.03s-1.54,1.29-3.23,1.63Z"/>
      <path class="cls-29" d="m168.5,322.23s3.54-.85.5,3.52c0,0-5.55,7.25-5.14,13.69h-4.34s-1.57-7.23,8.98-17.21Z"/>
    </g>
    <text class="cls-6" transform="translate(198 329.81)"><tspan class="cls-15" x="0" y="0">x</tspan><tspan class="cls-15" x="8.64" y="6"> </tspan><tspan class="cls-10" x="14.04" y="3">-2</tspan></text>
    <text class="cls-6" transform="translate(558.95 188.81)"><tspan class="cls-8" x="0" y="0">2</tspan><tspan class="cls-10" x="13.79" y="0">5 </tspan><tspan class="cls-15" x="34.42" y="-3">x</tspan></text>
    <text class="cls-6" transform="translate(559.05 140.81)"><tspan class="cls-9" x="0" y="0">5</tspan><tspan class="cls-10" x="11.45" y="0">0 </tspan><tspan class="cls-15" x="34.31" y="-3">x</tspan></text>
    <text class="cls-6" transform="translate(560.57 92.81)"><tspan class="cls-9" x="0" y="0">7</tspan><tspan class="cls-10" x="12.17" y="0">5 </tspan><tspan class="cls-15" x="32.79" y="-3">x</tspan></text>
    <text class="cls-6" transform="translate(551.85 44.81)"><tspan class="cls-10" x="0" y="0">1</tspan><tspan class="cls-7" x="5.51" y="0">0</tspan><tspan class="cls-10" x="18.65" y="0">0 </tspan><tspan class="cls-15" x="41.51" y="-3">x</tspan></text>
    <text class="cls-6" transform="translate(572.73 284.81)"><tspan class="cls-10" x="0" y="0">5 </tspan><tspan class="cls-15" x="20.63" y="-3">x</tspan></text>
    <text class="cls-6" transform="translate(564.99 236.81)"><tspan class="cls-10" x="0" y="0">10 </tspan><tspan class="cls-15" x="28.37" y="-3">x</tspan></text>
    <text class="cls-6" transform="translate(579.75 380.81)"><tspan class="cls-10" x="0" y="0">1 </tspan><tspan class="cls-15" x="13.61" y="-3">x</tspan></text>
    <text class="cls-6" transform="translate(570.93 332.81)"><tspan class="cls-10" x="0" y="0">2 </tspan><tspan class="cls-15" x="22.43" y="-3">x</tspan></text>
    <rect class="cls-37" x="602" y="10" width="56" height="48"/>
    <g>
      <path class="cls-41" d="m624.4,21.2h12.79c5.3,0,9.6,4.3,9.6,9.6v16h-32v-16c0-5.3,4.3-9.6,9.6-9.6Z"/>
      <path class="cls-44" d="m626,21.2v25.6h-6.4v-24.31c1.41-.82,3.05-1.29,4.8-1.29h1.6Z"/>
      <path class="cls-44" d="m642,22.49v24.31h-6.4v-25.6h1.6c1.75,0,3.39.47,4.8,1.29Z"/>
      <line class="cls-11" x1="614.8" y1="37.2" x2="646.8" y2="37.2"/>
      <rect class="cls-27" x="627.6" y="33.2" width="6.4" height="8" rx="1.32" ry="1.32"/>
      <g>
        <circle class="cls-46" cx="630.8" cy="36.4" r="1.28"/>
        <polygon class="cls-46" points="630.8 36.4 629.52 39.28 632.08 39.28 630.8 36.4"/>
      </g>
    </g>
    <rect class="cls-37" x="658" y="10" width="56" height="48"/>
    <g>
      <path class="cls-41" d="m680.4,21.2h12.79c5.3,0,9.6,4.3,9.6,9.6v16h-32v-16c0-5.3,4.3-9.6,9.6-9.6Z"/>
      <path class="cls-44" d="m682,21.2v25.6h-6.4v-24.31c1.41-.82,3.05-1.29,4.8-1.29h1.6Z"/>
      <path class="cls-44" d="m698,22.49v24.31h-6.4v-25.6h1.6c1.75,0,3.39.47,4.8,1.29Z"/>
      <line class="cls-11" x1="670.8" y1="37.2" x2="702.8" y2="37.2"/>
      <rect class="cls-27" x="683.6" y="33.2" width="6.4" height="8" rx="1.32" ry="1.32"/>
      <g>
        <circle class="cls-46" cx="686.8" cy="36.4" r="1.28"/>
        <polygon class="cls-46" points="686.8 36.4 685.52 39.28 688.08 39.28 686.8 36.4"/>
      </g>
    </g>
    <rect class="cls-37" x="714" y="10" width="56" height="48"/>
    <g>
      <path class="cls-41" d="m736.4,21.2h12.79c5.3,0,9.6,4.3,9.6,9.6v16h-32v-16c0-5.3,4.3-9.6,9.6-9.6Z"/>
      <path class="cls-44" d="m738,21.2v25.6h-6.4v-24.31c1.41-.82,3.05-1.29,4.8-1.29h1.6Z"/>
      <path class="cls-44" d="m754,22.49v24.31h-6.4v-25.6h1.6c1.75,0,3.39.47,4.8,1.29Z"/>
      <line class="cls-11" x1="726.8" y1="37.2" x2="758.8" y2="37.2"/>
      <rect class="cls-27" x="739.6" y="33.2" width="6.4" height="8" rx="1.32" ry="1.32"/>
      <g>
        <circle class="cls-46" cx="742.8" cy="36.4" r="1.28"/>
        <polygon class="cls-46" points="742.8 36.4 741.52 39.28 744.08 39.28 742.8 36.4"/>
      </g>
    </g>
    <rect class="cls-37" x="602" y="202" width="56" height="48"/>
    <g>
      <path class="cls-41" d="m624.4,213.2h12.79c5.3,0,9.6,4.3,9.6,9.6v16h-32v-16c0-5.3,4.3-9.6,9.6-9.6Z"/>
      <path class="cls-44" d="m626,213.2v25.6h-6.4v-24.31c1.41-.82,3.05-1.29,4.8-1.29h1.6Z"/>
      <path class="cls-44" d="m642,214.49v24.31h-6.4v-25.6h1.6c1.75,0,3.39.47,4.8,1.29Z"/>
      <line class="cls-11" x1="614.8" y1="229.2" x2="646.8" y2="229.2"/>
      <rect class="cls-27" x="627.6" y="225.2" width="6.4" height="8" rx="1.32" ry="1.32"/>
      <g>
        <circle class="cls-46" cx="630.8" cy="228.4" r="1.28"/>
        <polygon class="cls-46" points="630.8 228.4 629.52 231.28 632.08 231.28 630.8 228.4"/>
      </g>
    </g>
    <rect class="cls-37" x="658" y="202" width="56" height="48"/>
    <g>
      <path class="cls-41" d="m680.4,213.2h12.79c5.3,0,9.6,4.3,9.6,9.6v16h-32v-16c0-5.3,4.3-9.6,9.6-9.6Z"/>
      <path class="cls-44" d="m682,213.2v25.6h-6.4v-24.31c1.41-.82,3.05-1.29,4.8-1.29h1.6Z"/>
      <path class="cls-44" d="m698,214.49v24.31h-6.4v-25.6h1.6c1.75,0,3.39.47,4.8,1.29Z"/>
      <line class="cls-11" x1="670.8" y1="229.2" x2="702.8" y2="229.2"/>
      <rect class="cls-27" x="683.6" y="225.2" width="6.4" height="8" rx="1.32" ry="1.32"/>
      <g>
        <circle class="cls-46" cx="686.8" cy="228.4" r="1.28"/>
        <polygon class="cls-46" points="686.8 228.4 685.52 231.28 688.08 231.28 686.8 228.4"/>
      </g>
    </g>
    <rect class="cls-37" x="602" y="298" width="56" height="48"/>
    <g>
      <path class="cls-41" d="m624.4,309.2h12.79c5.3,0,9.6,4.3,9.6,9.6v16h-32v-16c0-5.3,4.3-9.6,9.6-9.6Z"/>
      <path class="cls-44" d="m626,309.2v25.6h-6.4v-24.31c1.41-.82,3.05-1.29,4.8-1.29h1.6Z"/>
      <path class="cls-44" d="m642,310.49v24.31h-6.4v-25.6h1.6c1.75,0,3.39.47,4.8,1.29Z"/>
      <line class="cls-11" x1="614.8" y1="325.2" x2="646.8" y2="325.2"/>
      <rect class="cls-27" x="627.6" y="321.2" width="6.4" height="8" rx="1.32" ry="1.32"/>
      <g>
        <circle class="cls-46" cx="630.8" cy="324.4" r="1.28"/>
        <polygon class="cls-46" points="630.8 324.4 629.52 327.28 632.08 327.28 630.8 324.4"/>
      </g>
    </g>
    <rect class="cls-37" x="602" y="58" width="56" height="48"/>
    <g>
      <circle class="cls-48" cx="630.8" cy="87.17" r="11.2"/>
      <rect class="cls-48" x="624.4" y="67.97" width="12.8" height="3.2" rx="1.6" ry="1.6"/>
      <path class="cls-48" d="m635.67,69.55h-9.73s2.93,3.68,0,8.99l4.87-.11,4.87.11c-2.93-5.31,0-8.99,0-8.99Z"/>
      <circle class="cls-49" cx="630.8" cy="87.17" r="8.8"/>
      <path class="cls-49" d="m632.78,74.73c0-.37-.31-.65-.68-.65h-2.6c-.37,0-.67.29-.68.65-.03,1.18-.44,3.71-3.26,5.39h10.47c-2.81-1.68-3.23-4.21-3.26-5.39Z"/>
      <path class="cls-32" d="m630.8,65.63h-3.22c-.58,0-1.02.52-.92,1.09.21,1.19.7,3.22,1.83,5.43.16.32.48.52.84.52h2.95c.36,0,.68-.2.84-.52,1.13-2.21,1.62-4.24,1.83-5.43.1-.57-.34-1.09-.92-1.09h-3.22Z"/>
      <path class="cls-33" d="m626.92,67.97h7.76c.12-.47.2-.89.26-1.24.1-.57-.34-1.09-.92-1.09h-6.44c-.58,0-1.02.52-.92,1.09.06.35.15.77.26,1.24Z"/>
      <path class="cls-36" d="m622.79,90.8s1.47-.84,4.44,1.19c0,0,1.83.99,3.57-.26,0,0,2.2-1.67,4.16-.73,0,0,1.83,1.6,3.93-.37,0,0-1.91,5.19-8.09,5.34,0,0-5.78.16-8.01-5.16Z"/>
      <circle class="cls-36" cx="628.88" cy="88.77" r="1.92"/>
      <circle class="cls-36" cx="633.36" cy="85.57" r="1.44"/>
      <circle class="cls-36" cx="629.52" cy="82.69" r="1.12"/>
    </g>
    <rect class="cls-37" x="658" y="58" width="56" height="48"/>
    <g>
      <circle class="cls-48" cx="686.8" cy="87.17" r="11.2"/>
      <rect class="cls-48" x="680.4" y="67.97" width="12.8" height="3.2" rx="1.6" ry="1.6"/>
      <path class="cls-48" d="m691.67,69.55h-9.73s2.93,3.68,0,8.99l4.87-.11,4.87.11c-2.93-5.31,0-8.99,0-8.99Z"/>
      <circle class="cls-49" cx="686.8" cy="87.17" r="8.8"/>
      <path class="cls-49" d="m688.78,74.73c0-.37-.31-.65-.68-.65h-2.6c-.37,0-.67.29-.68.65-.03,1.18-.44,3.71-3.26,5.39h10.47c-2.81-1.68-3.23-4.21-3.26-5.39Z"/>
      <path class="cls-32" d="m686.8,65.63h-3.22c-.58,0-1.02.52-.92,1.09.21,1.19.7,3.22,1.83,5.43.16.32.48.52.84.52h2.95c.36,0,.68-.2.84-.52,1.13-2.21,1.62-4.24,1.83-5.43.1-.57-.34-1.09-.92-1.09h-3.22Z"/>
      <path class="cls-33" d="m682.92,67.97h7.76c.12-.47.2-.89.26-1.24.1-.57-.34-1.09-.92-1.09h-6.44c-.58,0-1.02.52-.92,1.09.06.35.15.77.26,1.24Z"/>
      <path class="cls-36" d="m678.79,90.8s1.47-.84,4.44,1.19c0,0,1.83.99,3.57-.26,0,0,2.2-1.67,4.16-.73,0,0,1.83,1.6,3.93-.37,0,0-1.91,5.19-8.09,5.34,0,0-5.78.16-8.01-5.16Z"/>
      <circle class="cls-36" cx="684.88" cy="88.77" r="1.92"/>
      <circle class="cls-36" cx="689.36" cy="85.57" r="1.44"/>
      <circle class="cls-36" cx="685.52" cy="82.69" r="1.12"/>
    </g>
    <rect class="cls-37" x="714" y="58" width="56" height="48"/>
    <g>
      <circle class="cls-48" cx="742.8" cy="87.17" r="11.2"/>
      <rect class="cls-48" x="736.4" y="67.97" width="12.8" height="3.2" rx="1.6" ry="1.6"/>
      <path class="cls-48" d="m747.67,69.55h-9.73s2.93,3.68,0,8.99l4.87-.11,4.87.11c-2.93-5.31,0-8.99,0-8.99Z"/>
      <circle class="cls-49" cx="742.8" cy="87.17" r="8.8"/>
      <path class="cls-49" d="m744.78,74.73c0-.37-.31-.65-.68-.65h-2.6c-.37,0-.67.29-.68.65-.03,1.18-.44,3.71-3.26,5.39h10.47c-2.81-1.68-3.23-4.21-3.26-5.39Z"/>
      <path class="cls-32" d="m742.8,65.63h-3.22c-.58,0-1.02.52-.92,1.09.21,1.19.7,3.22,1.83,5.43.16.32.48.52.84.52h2.95c.36,0,.68-.2.84-.52,1.13-2.21,1.62-4.24,1.83-5.43.1-.57-.34-1.09-.92-1.09h-3.22Z"/>
      <path class="cls-33" d="m738.92,67.97h7.76c.12-.47.2-.89.26-1.24.1-.57-.34-1.09-.92-1.09h-6.44c-.58,0-1.02.52-.92,1.09.06.35.15.77.26,1.24Z"/>
      <path class="cls-36" d="m734.79,90.8s1.47-.84,4.44,1.19c0,0,1.83.99,3.57-.26,0,0,2.2-1.67,4.16-.73,0,0,1.83,1.6,3.93-.37,0,0-1.91,5.19-8.09,5.34,0,0-5.78.16-8.01-5.16Z"/>
      <circle class="cls-36" cx="740.88" cy="88.77" r="1.92"/>
      <circle class="cls-36" cx="745.36" cy="85.57" r="1.44"/>
      <circle class="cls-36" cx="741.52" cy="82.69" r="1.12"/>
    </g>
    <rect class="cls-37" x="602" y="250" width="56" height="48"/>
    <g>
      <circle class="cls-48" cx="630.8" cy="279.17" r="11.2"/>
      <rect class="cls-48" x="624.4" y="259.97" width="12.8" height="3.2" rx="1.6" ry="1.6"/>
      <path class="cls-48" d="m635.67,261.55h-9.73s2.93,3.68,0,8.99l4.87-.11,4.87.11c-2.93-5.31,0-8.99,0-8.99Z"/>
      <circle class="cls-49" cx="630.8" cy="279.17" r="8.8"/>
      <path class="cls-49" d="m632.78,266.73c0-.37-.31-.65-.68-.65h-2.6c-.37,0-.67.29-.68.65-.03,1.18-.44,3.71-3.26,5.39h10.47c-2.81-1.68-3.23-4.21-3.26-5.39Z"/>
      <path class="cls-32" d="m630.8,257.63h-3.22c-.58,0-1.02.52-.92,1.09.21,1.19.7,3.22,1.83,5.43.16.32.48.52.84.52h2.95c.36,0,.68-.2.84-.52,1.13-2.21,1.62-4.24,1.83-5.43.1-.57-.34-1.09-.92-1.09h-3.22Z"/>
      <path class="cls-33" d="m626.92,259.97h7.76c.12-.47.2-.89.26-1.24.1-.57-.34-1.09-.92-1.09h-6.44c-.58,0-1.02.52-.92,1.09.06.35.15.77.26,1.24Z"/>
      <path class="cls-36" d="m622.79,282.8s1.47-.84,4.44,1.19c0,0,1.83.99,3.57-.26,0,0,2.2-1.67,4.16-.73,0,0,1.83,1.6,3.93-.37,0,0-1.91,5.19-8.09,5.34,0,0-5.78.16-8.01-5.16Z"/>
      <circle class="cls-36" cx="628.88" cy="280.77" r="1.92"/>
      <circle class="cls-36" cx="633.36" cy="277.57" r="1.44"/>
      <circle class="cls-36" cx="629.52" cy="274.69" r="1.12"/>
    </g>
    <rect class="cls-37" x="658" y="250" width="56" height="48"/>
    <g>
      <circle class="cls-48" cx="686.8" cy="279.17" r="11.2"/>
      <rect class="cls-48" x="680.4" y="259.97" width="12.8" height="3.2" rx="1.6" ry="1.6"/>
      <path class="cls-48" d="m691.67,261.55h-9.73s2.93,3.68,0,8.99l4.87-.11,4.87.11c-2.93-5.31,0-8.99,0-8.99Z"/>
      <circle class="cls-49" cx="686.8" cy="279.17" r="8.8"/>
      <path class="cls-49" d="m688.78,266.73c0-.37-.31-.65-.68-.65h-2.6c-.37,0-.67.29-.68.65-.03,1.18-.44,3.71-3.26,5.39h10.47c-2.81-1.68-3.23-4.21-3.26-5.39Z"/>
      <path class="cls-32" d="m686.8,257.63h-3.22c-.58,0-1.02.52-.92,1.09.21,1.19.7,3.22,1.83,5.43.16.32.48.52.84.52h2.95c.36,0,.68-.2.84-.52,1.13-2.21,1.62-4.24,1.83-5.43.1-.57-.34-1.09-.92-1.09h-3.22Z"/>
      <path class="cls-33" d="m682.92,259.97h7.76c.12-.47.2-.89.26-1.24.1-.57-.34-1.09-.92-1.09h-6.44c-.58,0-1.02.52-.92,1.09.06.35.15.77.26,1.24Z"/>
      <path class="cls-36" d="m678.79,282.8s1.47-.84,4.44,1.19c0,0,1.83.99,3.57-.26,0,0,2.2-1.67,4.16-.73,0,0,1.83,1.6,3.93-.37,0,0-1.91,5.19-8.09,5.34,0,0-5.78.16-8.01-5.16Z"/>
      <circle class="cls-36" cx="684.88" cy="280.77" r="1.92"/>
      <circle class="cls-36" cx="689.36" cy="277.57" r="1.44"/>
      <circle class="cls-36" cx="685.52" cy="274.69" r="1.12"/>
    </g>
    <rect class="cls-37" x="602" y="346" width="56" height="48"/>
    <g>
      <circle class="cls-48" cx="630.8" cy="375.17" r="11.2"/>
      <rect class="cls-48" x="624.4" y="355.97" width="12.8" height="3.2" rx="1.6" ry="1.6"/>
      <path class="cls-48" d="m635.67,357.55h-9.73s2.93,3.68,0,8.99l4.87-.11,4.87.11c-2.93-5.31,0-8.99,0-8.99Z"/>
      <circle class="cls-49" cx="630.8" cy="375.17" r="8.8"/>
      <path class="cls-49" d="m632.78,362.73c0-.37-.31-.65-.68-.65h-2.6c-.37,0-.67.29-.68.65-.03,1.18-.44,3.71-3.26,5.39h10.47c-2.81-1.68-3.23-4.21-3.26-5.39Z"/>
      <path class="cls-32" d="m630.8,353.63h-3.22c-.58,0-1.02.52-.92,1.09.21,1.19.7,3.22,1.83,5.43.16.32.48.52.84.52h2.95c.36,0,.68-.2.84-.52,1.13-2.21,1.62-4.24,1.83-5.43.1-.57-.34-1.09-.92-1.09h-3.22Z"/>
      <path class="cls-33" d="m626.92,355.97h7.76c.12-.47.2-.89.26-1.24.1-.57-.34-1.09-.92-1.09h-6.44c-.58,0-1.02.52-.92,1.09.06.35.15.77.26,1.24Z"/>
      <path class="cls-36" d="m622.79,378.8s1.47-.84,4.44,1.19c0,0,1.83.99,3.57-.26,0,0,2.2-1.67,4.16-.73,0,0,1.83,1.6,3.93-.37,0,0-1.91,5.19-8.09,5.34,0,0-5.78.16-8.01-5.16Z"/>
      <circle class="cls-36" cx="628.88" cy="376.77" r="1.92"/>
      <circle class="cls-36" cx="633.36" cy="373.57" r="1.44"/>
      <circle class="cls-36" cx="629.52" cy="370.69" r="1.12"/>
    </g>
    <rect class="cls-37" x="602" y="106" width="56" height="48"/>
    <g>
      <polygon class="cls-31" points="645.75 115.05 637.91 114.75 622.22 134.51 624.25 136.55 626.29 138.58 646.05 122.89 645.75 115.05"/>
      <rect class="cls-39" x="619.74" y="135.14" width="2.24" height="9.6" transform="translate(280.8 -398.03) rotate(45)"/>
      <polygon class="cls-39" points="645.75 115.05 644.03 121.67 625.23 137.52 626.29 138.58 646.05 122.89 645.75 115.05"/>
      <rect class="cls-25" x="616.25" y="135.43" width="16" height="2.24" rx=".95" ry=".95" transform="translate(279.39 -401.42) rotate(45)"/>
      <circle class="cls-25" cx="617.47" cy="143.33" r="1.92"/>
    </g>
    <rect class="cls-37" x="658" y="106" width="56" height="48"/>
    <g>
      <polygon class="cls-31" points="701.75 115.05 693.91 114.75 678.22 134.51 680.25 136.55 682.29 138.58 702.05 122.89 701.75 115.05"/>
      <rect class="cls-39" x="675.74" y="135.14" width="2.24" height="9.6" transform="translate(297.2 -437.62) rotate(45)"/>
      <polygon class="cls-39" points="701.75 115.05 700.03 121.67 681.23 137.52 682.29 138.58 702.05 122.89 701.75 115.05"/>
      <rect class="cls-25" x="672.25" y="135.43" width="16" height="2.24" rx=".95" ry=".95" transform="translate(295.79 -441.02) rotate(45)"/>
      <circle class="cls-25" cx="673.47" cy="143.33" r="1.92"/>
    </g>
    <rect class="cls-37" x="714" y="106" width="56" height="48"/>
    <g>
      <polygon class="cls-31" points="757.75 115.05 749.91 114.75 734.22 134.51 736.25 136.55 738.29 138.58 758.05 122.89 757.75 115.05"/>
      <rect class="cls-39" x="731.74" y="135.14" width="2.24" height="9.6" transform="translate(313.6 -477.22) rotate(45)"/>
      <polygon class="cls-39" points="757.75 115.05 756.03 121.67 737.23 137.52 738.29 138.58 758.05 122.89 757.75 115.05"/>
      <rect class="cls-25" x="728.25" y="135.43" width="16" height="2.24" rx=".95" ry=".95" transform="translate(312.2 -480.62) rotate(45)"/>
      <circle class="cls-25" cx="729.47" cy="143.33" r="1.92"/>
    </g>
    <rect class="cls-37" x="714" y="154" width="56" height="48"/>
    <g>
      <g>
        <path class="cls-45" d="m741.2,163.6h1.6v28.8h-1.6c-7.95,0-14.4-6.45-14.4-14.4h0c0-7.95,6.45-14.4,14.4-14.4Z"/>
        <ellipse class="cls-35" cx="742.8" cy="178" rx="12.8" ry="14.4"/>
        <polyline class="cls-3" points="750.8 176.43 742.13 169.2 734.8 178.7 743.77 186.8 748.12 181.66 742.79 177.84"/>
      </g>
      <polygon class="cls-47" points="751.6 162.64 752.82 167.79 755.92 168.95 752.82 170.06 751.6 174.16 750.38 170.06 747.28 168.95 750.38 167.79 751.6 162.64"/>
    </g>
    <rect class="cls-37" x="602" y="154" width="56" height="48"/>
    <g>
      <g>
        <path class="cls-45" d="m629.2,163.6h1.6v28.8h-1.6c-7.95,0-14.4-6.45-14.4-14.4h0c0-7.95,6.45-14.4,14.4-14.4Z"/>
        <ellipse class="cls-35" cx="630.8" cy="178" rx="12.8" ry="14.4"/>
        <polyline class="cls-3" points="638.8 176.43 630.13 169.2 622.8 178.7 631.77 186.8 636.12 181.66 630.79 177.84"/>
      </g>
      <polygon class="cls-47" points="639.6 162.64 640.82 167.79 643.92 168.95 640.82 170.06 639.6 174.16 638.38 170.06 635.28 168.95 638.38 167.79 639.6 162.64"/>
    </g>
    <rect class="cls-37" x="658" y="154" width="56" height="48"/>
    <g>
      <g>
        <path class="cls-45" d="m685.2,163.6h1.6v28.8h-1.6c-7.95,0-14.4-6.45-14.4-14.4h0c0-7.95,6.45-14.4,14.4-14.4Z"/>
        <ellipse class="cls-35" cx="686.8" cy="178" rx="12.8" ry="14.4"/>
        <polyline class="cls-3" points="694.8 176.43 686.13 169.2 678.8 178.7 687.77 186.8 692.12 181.66 686.79 177.84"/>
      </g>
      <polygon class="cls-47" points="695.6 162.64 696.82 167.79 699.92 168.95 696.82 170.06 695.6 174.16 694.38 170.06 691.28 168.95 694.38 167.79 695.6 162.64"/>
    </g>
    <text class="cls-6" transform="translate(292.74 280.74)"><tspan class="cls-19" x="0" y="0">Aim for</tspan><tspan class="cls-18" x="68.01" y="0"> </tspan><tspan class="cls-19" x="70.71" y="0">T</tspan><tspan class="cls-13" x="84.38" y="0">r</tspan><tspan class="cls-19" x="93.36" y="0">easu</tspan><tspan class="cls-13" x="136.12" y="0">r</tspan><tspan class="cls-19" x="145.11" y="0">es! ---&gt;</tspan><tspan class="cls-19"><tspan x="-9.16" y="60" xml:space="preserve">&lt;--- Avoid  </tspan><tspan class="cls-12" x="95.58" y="60">t</tspan><tspan x="103.96" y="60">he Mo</tspan><tspan class="cls-16" x="156.37" y="60">n</tspan><tspan class="cls-14" x="166.95" y="60">s</tspan><tspan x="179.55" y="60">te</tspan><tspan class="cls-17" x="198.26" y="60">r</tspan><tspan x="207.66" y="60">s!</tspan></tspan></text>
  </g>
</svg>