<?xml version="1.0" encoding="UTF-8"?>
<svg id="Background" xmlns="http://www.w3.org/2000/svg" viewBox="0 0 800 600">
  <defs>
    <style>
      .cls-1 {
        fill: #f2e9ce;
      }

      .cls-1, .cls-2, .cls-3, .cls-4, .cls-5, .cls-6, .cls-7 {
        stroke-width: 0px;
      }

      .cls-2 {
        fill: #b25968;
      }

      .cls-3 {
        fill: #b27950;
      }

      .cls-4 {
        fill: #ff5975;
      }

      .cls-5 {
        fill: #80404a;
      }

      .cls-6 {
        fill: #e5677c;
      }

      .cls-7 {
        fill: #e5acb6;
      }
    </style>
  </defs>
  <g>
    <polygon class="cls-2" points="50 100 750 100 800 0 0 0 50 100"/>
    <polygon class="cls-2" points="50 500 750 500 800 600 0 600 50 500"/>
  </g>
  <polygon class="cls-7" points="252.5 0 281.37 100 522.2 100 547.5 0 252.5 0"/>
  <rect class="cls-5" x="50" y="100" width="700" height="400"/>
  <g>
    <polygon class="cls-3" points="750 100 800 0 800 600 750 500 750 100"/>
    <polygon class="cls-3" points="50 100 0 0 0 600 50 500 50 100"/>
  </g>
  <g>
    <path class="cls-1" d="m227.5,0s10.52,50.54,32.88,80c0,0,43.4-31.46,42.09-80h-74.97Z"/>
    <path class="cls-1" d="m570.32,0s-10.52,50.54-32.88,80c0,0-43.4-31.46-42.09-80h74.97Z"/>
    <path class="cls-1" d="m285,0s12.82,25.12,30.69,40c0,0,26.76-12.2,29.31-39.85l-60-.15Z"/>
    <path class="cls-1" d="m335,0s15.32,17.52,33.19,32.4c0,0,24.26-4.59,26.81-32.25l-60-.15Z"/>
    <path class="cls-1" d="m500,0s-17.82,25.12-35.69,40c0,0-21.76-12.2-24.31-39.85l60-.15Z"/>
    <path class="cls-1" d="m450,0s-15.32,17.52-33.19,32.4c0,0-24.26-4.59-26.81-32.25l60-.15Z"/>
    <path class="cls-1" d="m0,0s7.95,60,66.63,80c0,0,39.12-8.14,57.37-80H0Z"/>
    <path class="cls-1" d="m800,0s-7.95,60-66.63,80c0,0-39.12-8.14-57.37-80h124Z"/>
    <path class="cls-1" d="m90.5.15s9.19,37.84,47.08,62.85C137.58,63,176.77,26.51,175.47,0l-84.97.15Z"/>
    <path class="cls-1" d="m151.5,0s0,16.31,56.37,40c0,0,30.57-8.46,40.63-39.73l-97-.27Z"/>
    <path class="cls-1" d="m697.5.15s-9.19,37.84-47.08,62.85c0,0-39.2-36.49-37.89-63l84.97.15Z"/>
    <path class="cls-1" d="m636.5,0s0,16.31-56.37,40c0,0-30.57-8.46-40.63-39.73l97-.27Z"/>
  </g>
  <g>
    <rect class="cls-7" x="350" y="512.5" width="100" height="55" rx="27.5" ry="27.5"/>
    <rect class="cls-7" x="122.5" y="512.5" width="155" height="55" rx="27.5" ry="27.5"/>
    <rect class="cls-6" x="522.5" y="512.5" width="155" height="55" rx="27.5" ry="27.5"/>
    <rect class="cls-6" x="462.5" y="512.5" width="35" height="55" rx="13.07" ry="13.07"/>
    <rect class="cls-6" x="302.5" y="512.5" width="35" height="55" rx="13.07" ry="13.07"/>
    <rect class="cls-4" x="52.5" y="512.5" width="55" height="55" rx="27.5" ry="27.5"/>
    <rect class="cls-4" x="697.5" y="512.5" width="55" height="55" rx="27.5" ry="27.5"/>
  </g>
  <path class="cls-1" d="m436.5,600s-.55-29.83,19.27-50c0,0,36.78,10.66,37.73,50h-57Z"/>
  <g>
    <path class="cls-1" d="m266.76,600s-14.18-32.81,21.73-67c0,0,32.33,24.22,24.2,67h-45.93Z"/>
    <path class="cls-1" d="m534.74,600s14.18-32.81-21.73-67c0,0-32.33,24.22-24.2,67h45.93Z"/>
    <path class="cls-1" d="m366,600s.55-29.83-19.27-50c0,0-36.78,10.66-37.73,50h57Z"/>
    <path class="cls-1" d="m75,600s-13.3-77-40.67-105c0,0-32.5,11.09-34.33,105h75Z"/>
    <path class="cls-1" d="m725,600s13.3-77,40.67-105c0,0,32.5,11.09,34.33,105h-75Z"/>
    <path class="cls-1" d="m651,600s-.31-32.5,36.16-60c0,0,36.8,12.51,45.84,60h-82Z"/>
    <path class="cls-1" d="m151,600s.31-32.5-36.16-60c0,0-36.8,12.51-45.84,60h82Z"/>
  </g>
</svg>